<mxfile host="Electron" agent="Mozilla/5.0 (Windows NT 10.0; Win64; x64) AppleWebKit/537.36 (KHTML, like Gecko) draw.io/27.0.2 Chrome/134.0.6998.205 Electron/35.3.0 Safari/537.36" version="27.0.2">
  <diagram name="Page-1" id="PXagYK_S5JkY0C63cjCr">
    <mxGraphModel dx="2276" dy="889" grid="1" gridSize="10" guides="1" tooltips="1" connect="1" arrows="1" fold="1" page="1" pageScale="1" pageWidth="850" pageHeight="1100" math="0" shadow="0">
      <root>
        <mxCell id="0" />
        <mxCell id="1" parent="0" />
        <mxCell id="bK1I2ThMuqI34sz6RyVa-1" value="id_card" style="ellipse;whiteSpace=wrap;html=1;" vertex="1" parent="1">
          <mxGeometry x="-530" y="285" width="90" height="30" as="geometry" />
        </mxCell>
        <mxCell id="bK1I2ThMuqI34sz6RyVa-2" value="username" style="ellipse;whiteSpace=wrap;html=1;" vertex="1" parent="1">
          <mxGeometry x="-440" y="285" width="90" height="30" as="geometry" />
        </mxCell>
        <mxCell id="bK1I2ThMuqI34sz6RyVa-3" value="password" style="ellipse;whiteSpace=wrap;html=1;" vertex="1" parent="1">
          <mxGeometry x="-395" y="310" width="90" height="30" as="geometry" />
        </mxCell>
        <mxCell id="bK1I2ThMuqI34sz6RyVa-4" value="user" style="rounded=0;whiteSpace=wrap;html=1;" vertex="1" parent="1">
          <mxGeometry x="-500" y="357.5" width="120" height="50" as="geometry" />
        </mxCell>
        <mxCell id="bK1I2ThMuqI34sz6RyVa-5" value="" style="endArrow=none;html=1;rounded=0;exitX=0.5;exitY=0;exitDx=0;exitDy=0;" edge="1" parent="1" source="bK1I2ThMuqI34sz6RyVa-4">
          <mxGeometry width="50" height="50" relative="1" as="geometry">
            <mxPoint x="-440" y="350" as="sourcePoint" />
            <mxPoint x="-350" y="340" as="targetPoint" />
            <Array as="points" />
          </mxGeometry>
        </mxCell>
        <mxCell id="bK1I2ThMuqI34sz6RyVa-6" value="" style="endArrow=none;html=1;rounded=0;exitX=0.5;exitY=0;exitDx=0;exitDy=0;entryX=0.5;entryY=1;entryDx=0;entryDy=0;" edge="1" parent="1" source="bK1I2ThMuqI34sz6RyVa-4">
          <mxGeometry width="50" height="50" relative="1" as="geometry">
            <mxPoint x="-597" y="383" as="sourcePoint" />
            <mxPoint x="-535" y="340" as="targetPoint" />
            <Array as="points" />
          </mxGeometry>
        </mxCell>
        <mxCell id="bK1I2ThMuqI34sz6RyVa-7" value="" style="endArrow=none;html=1;rounded=0;exitX=0.5;exitY=0;exitDx=0;exitDy=0;entryX=0.5;entryY=1;entryDx=0;entryDy=0;" edge="1" parent="1" source="bK1I2ThMuqI34sz6RyVa-4" target="bK1I2ThMuqI34sz6RyVa-1">
          <mxGeometry width="50" height="50" relative="1" as="geometry">
            <mxPoint x="-540" y="346.5" as="sourcePoint" />
            <mxPoint x="-493" y="283.5" as="targetPoint" />
            <Array as="points" />
          </mxGeometry>
        </mxCell>
        <mxCell id="bK1I2ThMuqI34sz6RyVa-8" value="" style="endArrow=none;html=1;rounded=0;exitX=0.5;exitY=0;exitDx=0;exitDy=0;entryX=0.5;entryY=1;entryDx=0;entryDy=0;" edge="1" parent="1" source="bK1I2ThMuqI34sz6RyVa-4" target="bK1I2ThMuqI34sz6RyVa-2">
          <mxGeometry width="50" height="50" relative="1" as="geometry">
            <mxPoint x="-440" y="320" as="sourcePoint" />
            <mxPoint x="-440" y="260" as="targetPoint" />
            <Array as="points" />
          </mxGeometry>
        </mxCell>
        <mxCell id="bK1I2ThMuqI34sz6RyVa-9" value="pinjam" style="rhombus;whiteSpace=wrap;html=1;" vertex="1" parent="1">
          <mxGeometry x="-305" y="345" width="100" height="75" as="geometry" />
        </mxCell>
        <mxCell id="bK1I2ThMuqI34sz6RyVa-10" value="" style="endArrow=none;html=1;rounded=0;entryX=0.5;entryY=0;entryDx=0;entryDy=0;exitX=0.5;exitY=1;exitDx=0;exitDy=0;" edge="1" parent="1" source="bK1I2ThMuqI34sz6RyVa-11" target="bK1I2ThMuqI34sz6RyVa-9">
          <mxGeometry width="50" height="50" relative="1" as="geometry">
            <mxPoint x="-240" y="320" as="sourcePoint" />
            <mxPoint x="-259" y="393" as="targetPoint" />
          </mxGeometry>
        </mxCell>
        <mxCell id="bK1I2ThMuqI34sz6RyVa-11" value="&lt;u&gt;user_id&lt;/u&gt;" style="ellipse;whiteSpace=wrap;html=1;" vertex="1" parent="1">
          <mxGeometry x="-300" y="290" width="90" height="30" as="geometry" />
        </mxCell>
        <mxCell id="bK1I2ThMuqI34sz6RyVa-12" value="peminjaman" style="rounded=0;whiteSpace=wrap;html=1;" vertex="1" parent="1">
          <mxGeometry x="-60" y="357.5" width="120" height="50" as="geometry" />
        </mxCell>
        <mxCell id="bK1I2ThMuqI34sz6RyVa-13" value="&lt;u&gt;peminjaman_id&lt;/u&gt;" style="ellipse;whiteSpace=wrap;html=1;" vertex="1" parent="1">
          <mxGeometry x="-160" y="300" width="90" height="30" as="geometry" />
        </mxCell>
        <mxCell id="bK1I2ThMuqI34sz6RyVa-14" value="user_id" style="ellipse;whiteSpace=wrap;html=1;" vertex="1" parent="1">
          <mxGeometry x="-130" y="270" width="90" height="30" as="geometry" />
        </mxCell>
        <mxCell id="bK1I2ThMuqI34sz6RyVa-15" value="sarana_id" style="ellipse;whiteSpace=wrap;html=1;" vertex="1" parent="1">
          <mxGeometry x="-90" y="240" width="90" height="30" as="geometry" />
        </mxCell>
        <mxCell id="bK1I2ThMuqI34sz6RyVa-16" value="tanggal_pinjam" style="ellipse;whiteSpace=wrap;html=1;" vertex="1" parent="1">
          <mxGeometry y="240" width="90" height="30" as="geometry" />
        </mxCell>
        <mxCell id="bK1I2ThMuqI34sz6RyVa-17" value="tanggal_kembali" style="ellipse;whiteSpace=wrap;html=1;" vertex="1" parent="1">
          <mxGeometry x="40" y="270" width="90" height="30" as="geometry" />
        </mxCell>
        <mxCell id="bK1I2ThMuqI34sz6RyVa-18" value="jumlah_pinjam" style="ellipse;whiteSpace=wrap;html=1;" vertex="1" parent="1">
          <mxGeometry x="70" y="300" width="90" height="30" as="geometry" />
        </mxCell>
        <mxCell id="bK1I2ThMuqI34sz6RyVa-19" style="edgeStyle=orthogonalEdgeStyle;rounded=0;orthogonalLoop=1;jettySize=auto;html=1;exitX=0.5;exitY=1;exitDx=0;exitDy=0;" edge="1" parent="1" source="bK1I2ThMuqI34sz6RyVa-17" target="bK1I2ThMuqI34sz6RyVa-17">
          <mxGeometry relative="1" as="geometry" />
        </mxCell>
        <mxCell id="bK1I2ThMuqI34sz6RyVa-20" value="" style="endArrow=none;html=1;rounded=0;exitX=0.5;exitY=1;exitDx=0;exitDy=0;entryX=0.5;entryY=0;entryDx=0;entryDy=0;" edge="1" parent="1" source="bK1I2ThMuqI34sz6RyVa-15" target="bK1I2ThMuqI34sz6RyVa-12">
          <mxGeometry width="50" height="50" relative="1" as="geometry">
            <mxPoint x="-32" y="270" as="sourcePoint" />
            <mxPoint x="79" y="268" as="targetPoint" />
          </mxGeometry>
        </mxCell>
        <mxCell id="bK1I2ThMuqI34sz6RyVa-21" value="" style="endArrow=none;html=1;rounded=0;exitX=0.5;exitY=1;exitDx=0;exitDy=0;entryX=0.5;entryY=0;entryDx=0;entryDy=0;" edge="1" parent="1" source="bK1I2ThMuqI34sz6RyVa-13" target="bK1I2ThMuqI34sz6RyVa-12">
          <mxGeometry width="50" height="50" relative="1" as="geometry">
            <mxPoint x="-150" y="403.5" as="sourcePoint" />
            <mxPoint x="-39" y="401.5" as="targetPoint" />
          </mxGeometry>
        </mxCell>
        <mxCell id="bK1I2ThMuqI34sz6RyVa-22" value="" style="endArrow=none;html=1;rounded=0;exitX=0.5;exitY=1;exitDx=0;exitDy=0;entryX=0.5;entryY=0;entryDx=0;entryDy=0;" edge="1" parent="1" source="bK1I2ThMuqI34sz6RyVa-14" target="bK1I2ThMuqI34sz6RyVa-12">
          <mxGeometry width="50" height="50" relative="1" as="geometry">
            <mxPoint x="-140" y="413.5" as="sourcePoint" />
            <mxPoint x="-29" y="411.5" as="targetPoint" />
          </mxGeometry>
        </mxCell>
        <mxCell id="bK1I2ThMuqI34sz6RyVa-23" value="" style="endArrow=none;html=1;rounded=0;exitX=0.5;exitY=0;exitDx=0;exitDy=0;entryX=0.5;entryY=1;entryDx=0;entryDy=0;" edge="1" parent="1" source="bK1I2ThMuqI34sz6RyVa-12" target="bK1I2ThMuqI34sz6RyVa-16">
          <mxGeometry width="50" height="50" relative="1" as="geometry">
            <mxPoint x="-130" y="423.5" as="sourcePoint" />
            <mxPoint x="-19" y="421.5" as="targetPoint" />
          </mxGeometry>
        </mxCell>
        <mxCell id="bK1I2ThMuqI34sz6RyVa-24" value="" style="endArrow=none;html=1;rounded=0;exitX=0.5;exitY=0;exitDx=0;exitDy=0;entryX=0.5;entryY=1;entryDx=0;entryDy=0;" edge="1" parent="1" source="bK1I2ThMuqI34sz6RyVa-12" target="bK1I2ThMuqI34sz6RyVa-17">
          <mxGeometry width="50" height="50" relative="1" as="geometry">
            <mxPoint x="-120" y="433.5" as="sourcePoint" />
            <mxPoint x="-9" y="431.5" as="targetPoint" />
          </mxGeometry>
        </mxCell>
        <mxCell id="bK1I2ThMuqI34sz6RyVa-25" value="" style="endArrow=none;html=1;rounded=0;exitX=0.5;exitY=0;exitDx=0;exitDy=0;entryX=0.5;entryY=1;entryDx=0;entryDy=0;" edge="1" parent="1" source="bK1I2ThMuqI34sz6RyVa-12" target="bK1I2ThMuqI34sz6RyVa-18">
          <mxGeometry width="50" height="50" relative="1" as="geometry">
            <mxPoint x="-110" y="443.5" as="sourcePoint" />
            <mxPoint x="1" y="441.5" as="targetPoint" />
          </mxGeometry>
        </mxCell>
        <mxCell id="bK1I2ThMuqI34sz6RyVa-26" value="dapat" style="rhombus;whiteSpace=wrap;html=1;" vertex="1" parent="1">
          <mxGeometry x="180" y="345" width="100" height="75" as="geometry" />
        </mxCell>
        <mxCell id="bK1I2ThMuqI34sz6RyVa-27" value="&lt;u&gt;sarana_id&lt;/u&gt;" style="ellipse;whiteSpace=wrap;html=1;" vertex="1" parent="1">
          <mxGeometry x="185" y="280" width="90" height="30" as="geometry" />
        </mxCell>
        <mxCell id="bK1I2ThMuqI34sz6RyVa-28" value="" style="endArrow=none;html=1;rounded=0;exitX=0.5;exitY=0;exitDx=0;exitDy=0;entryX=0.5;entryY=1;entryDx=0;entryDy=0;" edge="1" parent="1" source="bK1I2ThMuqI34sz6RyVa-26" target="bK1I2ThMuqI34sz6RyVa-27">
          <mxGeometry width="50" height="50" relative="1" as="geometry">
            <mxPoint x="10" y="368" as="sourcePoint" />
            <mxPoint x="102" y="336" as="targetPoint" />
          </mxGeometry>
        </mxCell>
        <mxCell id="bK1I2ThMuqI34sz6RyVa-29" value="&lt;div&gt;sarana&lt;/div&gt;" style="rounded=0;whiteSpace=wrap;html=1;" vertex="1" parent="1">
          <mxGeometry x="350" y="357.5" width="120" height="50" as="geometry" />
        </mxCell>
        <mxCell id="bK1I2ThMuqI34sz6RyVa-30" value="nama_sarana" style="ellipse;whiteSpace=wrap;html=1;" vertex="1" parent="1">
          <mxGeometry x="410" y="310" width="90" height="30" as="geometry" />
        </mxCell>
        <mxCell id="bK1I2ThMuqI34sz6RyVa-31" value="&lt;u&gt;sarana_id&lt;/u&gt;" style="ellipse;whiteSpace=wrap;html=1;" vertex="1" parent="1">
          <mxGeometry x="320" y="310" width="90" height="30" as="geometry" />
        </mxCell>
        <mxCell id="bK1I2ThMuqI34sz6RyVa-32" value="" style="endArrow=none;html=1;rounded=0;exitX=0.5;exitY=0;exitDx=0;exitDy=0;entryX=0.5;entryY=1;entryDx=0;entryDy=0;" edge="1" parent="1" source="bK1I2ThMuqI34sz6RyVa-29" target="bK1I2ThMuqI34sz6RyVa-30">
          <mxGeometry width="50" height="50" relative="1" as="geometry">
            <mxPoint x="447" y="330.25" as="sourcePoint" />
            <mxPoint x="507" y="330" as="targetPoint" />
          </mxGeometry>
        </mxCell>
        <mxCell id="bK1I2ThMuqI34sz6RyVa-33" value="" style="endArrow=none;html=1;rounded=0;exitX=0.5;exitY=1;exitDx=0;exitDy=0;entryX=0.5;entryY=0;entryDx=0;entryDy=0;" edge="1" parent="1" source="bK1I2ThMuqI34sz6RyVa-31" target="bK1I2ThMuqI34sz6RyVa-29">
          <mxGeometry width="50" height="50" relative="1" as="geometry">
            <mxPoint x="310" y="403.25" as="sourcePoint" />
            <mxPoint x="370" y="403" as="targetPoint" />
          </mxGeometry>
        </mxCell>
        <mxCell id="bK1I2ThMuqI34sz6RyVa-37" value="" style="endArrow=none;html=1;rounded=0;entryX=0.5;entryY=1;entryDx=0;entryDy=0;" edge="1" parent="1" target="bK1I2ThMuqI34sz6RyVa-29">
          <mxGeometry width="50" height="50" relative="1" as="geometry">
            <mxPoint x="450" y="430" as="sourcePoint" />
            <mxPoint x="410" y="420" as="targetPoint" />
          </mxGeometry>
        </mxCell>
        <mxCell id="bK1I2ThMuqI34sz6RyVa-38" value="" style="endArrow=none;html=1;rounded=0;entryX=0.5;entryY=1;entryDx=0;entryDy=0;" edge="1" parent="1" target="bK1I2ThMuqI34sz6RyVa-29">
          <mxGeometry width="50" height="50" relative="1" as="geometry">
            <mxPoint x="370" y="430" as="sourcePoint" />
            <mxPoint x="-190" y="375" as="targetPoint" />
          </mxGeometry>
        </mxCell>
        <mxCell id="bK1I2ThMuqI34sz6RyVa-39" value="&lt;div&gt;lokasi&lt;/div&gt;" style="ellipse;whiteSpace=wrap;html=1;" vertex="1" parent="1">
          <mxGeometry x="420" y="430" width="90" height="30" as="geometry" />
        </mxCell>
        <mxCell id="bK1I2ThMuqI34sz6RyVa-40" value="jumlah_tersedia" style="ellipse;whiteSpace=wrap;html=1;" vertex="1" parent="1">
          <mxGeometry x="310" y="430" width="90" height="30" as="geometry" />
        </mxCell>
        <mxCell id="bK1I2ThMuqI34sz6RyVa-84" value="&lt;u&gt;user_id&lt;/u&gt;" style="ellipse;whiteSpace=wrap;html=1;" vertex="1" parent="1">
          <mxGeometry x="-610" y="315" width="90" height="30" as="geometry" />
        </mxCell>
        <mxCell id="bK1I2ThMuqI34sz6RyVa-85" value="&lt;div&gt;keterangan&lt;/div&gt;" style="ellipse;whiteSpace=wrap;html=1;" vertex="1" parent="1">
          <mxGeometry x="510" y="367.5" width="90" height="30" as="geometry" />
        </mxCell>
        <mxCell id="bK1I2ThMuqI34sz6RyVa-87" value="" style="endArrow=none;html=1;rounded=0;exitX=1;exitY=0.5;exitDx=0;exitDy=0;entryX=0;entryY=0.5;entryDx=0;entryDy=0;" edge="1" parent="1" source="bK1I2ThMuqI34sz6RyVa-29" target="bK1I2ThMuqI34sz6RyVa-85">
          <mxGeometry width="50" height="50" relative="1" as="geometry">
            <mxPoint x="420" y="368" as="sourcePoint" />
            <mxPoint x="465" y="350" as="targetPoint" />
          </mxGeometry>
        </mxCell>
        <mxCell id="bK1I2ThMuqI34sz6RyVa-130" value="PJB_Muhamad_Alee_Alghifari" style="swimlane;whiteSpace=wrap;html=1;" vertex="1" parent="1">
          <mxGeometry x="-515" y="595" width="200" height="460" as="geometry" />
        </mxCell>
        <mxCell id="bK1I2ThMuqI34sz6RyVa-131" value="login" style="ellipse;whiteSpace=wrap;html=1;" vertex="1" parent="bK1I2ThMuqI34sz6RyVa-130">
          <mxGeometry x="40" y="30" width="120" height="50" as="geometry" />
        </mxCell>
        <mxCell id="bK1I2ThMuqI34sz6RyVa-132" value="Peminjaman" style="ellipse;whiteSpace=wrap;html=1;" vertex="1" parent="bK1I2ThMuqI34sz6RyVa-130">
          <mxGeometry x="40" y="210" width="120" height="50" as="geometry" />
        </mxCell>
        <mxCell id="bK1I2ThMuqI34sz6RyVa-133" value="Dashboard rekap" style="ellipse;whiteSpace=wrap;html=1;" vertex="1" parent="bK1I2ThMuqI34sz6RyVa-130">
          <mxGeometry x="40" y="90" width="120" height="50" as="geometry" />
        </mxCell>
        <mxCell id="bK1I2ThMuqI34sz6RyVa-134" value="kelola sarana/barang" style="ellipse;whiteSpace=wrap;html=1;" vertex="1" parent="bK1I2ThMuqI34sz6RyVa-130">
          <mxGeometry x="40" y="150" width="120" height="50" as="geometry" />
        </mxCell>
        <mxCell id="bK1I2ThMuqI34sz6RyVa-135" value="Pengembalian" style="ellipse;whiteSpace=wrap;html=1;" vertex="1" parent="bK1I2ThMuqI34sz6RyVa-130">
          <mxGeometry x="40" y="270" width="120" height="50" as="geometry" />
        </mxCell>
        <mxCell id="bK1I2ThMuqI34sz6RyVa-136" value="laporan peminjaman dan pengembalian" style="ellipse;whiteSpace=wrap;html=1;" vertex="1" parent="bK1I2ThMuqI34sz6RyVa-130">
          <mxGeometry x="40" y="330" width="120" height="50" as="geometry" />
        </mxCell>
        <mxCell id="bK1I2ThMuqI34sz6RyVa-137" style="edgeStyle=orthogonalEdgeStyle;rounded=0;orthogonalLoop=1;jettySize=auto;html=1;exitX=0.5;exitY=1;exitDx=0;exitDy=0;" edge="1" parent="bK1I2ThMuqI34sz6RyVa-130" source="bK1I2ThMuqI34sz6RyVa-133" target="bK1I2ThMuqI34sz6RyVa-133">
          <mxGeometry relative="1" as="geometry" />
        </mxCell>
        <mxCell id="bK1I2ThMuqI34sz6RyVa-138" value="logout" style="ellipse;whiteSpace=wrap;html=1;" vertex="1" parent="bK1I2ThMuqI34sz6RyVa-130">
          <mxGeometry x="40" y="400" width="120" height="50" as="geometry" />
        </mxCell>
        <mxCell id="bK1I2ThMuqI34sz6RyVa-140" value="Admin" style="shape=umlActor;verticalLabelPosition=bottom;verticalAlign=top;html=1;outlineConnect=0;" vertex="1" parent="1">
          <mxGeometry x="-215" y="645" width="30" height="60" as="geometry" />
        </mxCell>
        <mxCell id="bK1I2ThMuqI34sz6RyVa-143" value="User" style="shape=umlActor;verticalLabelPosition=bottom;verticalAlign=top;html=1;outlineConnect=0;" vertex="1" parent="1">
          <mxGeometry x="-665" y="865" width="30" height="60" as="geometry" />
        </mxCell>
        <mxCell id="bK1I2ThMuqI34sz6RyVa-164" value="System Peminjaman Sarana dan Prasarana" style="ellipse;whiteSpace=wrap;html=1;fontSize=14;" vertex="1" parent="1">
          <mxGeometry x="320" y="697.78" width="130" height="90" as="geometry" />
        </mxCell>
        <mxCell id="bK1I2ThMuqI34sz6RyVa-165" value="User" style="rounded=0;whiteSpace=wrap;html=1;fontSize=14;" vertex="1" parent="1">
          <mxGeometry x="20" y="702.78" width="110" height="70" as="geometry" />
        </mxCell>
        <mxCell id="bK1I2ThMuqI34sz6RyVa-166" value="Admin" style="rounded=0;whiteSpace=wrap;html=1;fontSize=14;" vertex="1" parent="1">
          <mxGeometry x="625" y="712.78" width="110" height="60" as="geometry" />
        </mxCell>
        <mxCell id="bK1I2ThMuqI34sz6RyVa-167" value="" style="endArrow=classic;html=1;rounded=0;exitX=0;exitY=0.5;exitDx=0;exitDy=0;entryX=1;entryY=0.5;entryDx=0;entryDy=0;fontSize=14;" edge="1" parent="1">
          <mxGeometry width="50" height="50" relative="1" as="geometry">
            <mxPoint x="320.0000000000032" y="712.78" as="sourcePoint" />
            <mxPoint x="140" y="712.78" as="targetPoint" />
            <Array as="points" />
          </mxGeometry>
        </mxCell>
        <mxCell id="bK1I2ThMuqI34sz6RyVa-168" value="" style="endArrow=classic;html=1;rounded=0;exitX=1;exitY=0.5;exitDx=0;exitDy=0;fontSize=14;" edge="1" parent="1">
          <mxGeometry width="50" height="50" relative="1" as="geometry">
            <mxPoint x="140" y="767.78" as="sourcePoint" />
            <mxPoint x="320.0000000000032" y="767.78" as="targetPoint" />
            <Array as="points" />
          </mxGeometry>
        </mxCell>
        <mxCell id="bK1I2ThMuqI34sz6RyVa-170" value="Peminjaman &amp;amp; Pengembalian" style="text;html=1;align=center;verticalAlign=middle;resizable=0;points=[];autosize=1;strokeColor=none;fillColor=none;fontSize=14;" vertex="1" parent="1">
          <mxGeometry x="130" y="762.78" width="210" height="30" as="geometry" />
        </mxCell>
        <mxCell id="bK1I2ThMuqI34sz6RyVa-171" value="" style="endArrow=classic;html=1;rounded=0;entryX=0.971;entryY=0.705;entryDx=0;entryDy=0;entryPerimeter=0;fontSize=14;" edge="1" parent="1">
          <mxGeometry width="50" height="50" relative="1" as="geometry">
            <mxPoint x="610" y="767.19" as="sourcePoint" />
            <mxPoint x="456.23" y="767.6399999999999" as="targetPoint" />
            <Array as="points" />
          </mxGeometry>
        </mxCell>
        <mxCell id="bK1I2ThMuqI34sz6RyVa-172" value="approve&amp;nbsp;&lt;div&gt;peminjaman &amp;amp; pengembalian&lt;/div&gt;" style="text;html=1;align=center;verticalAlign=middle;resizable=0;points=[];autosize=1;strokeColor=none;fillColor=none;fontSize=14;" vertex="1" parent="1">
          <mxGeometry x="440" y="757.78" width="200" height="50" as="geometry" />
        </mxCell>
        <mxCell id="bK1I2ThMuqI34sz6RyVa-173" value="rekap seluruh data&lt;div&gt;peminjaman &amp;amp; pengembalian&lt;/div&gt;" style="text;html=1;align=center;verticalAlign=middle;resizable=0;points=[];autosize=1;strokeColor=none;fillColor=none;fontSize=14;" vertex="1" parent="1">
          <mxGeometry x="430" y="672.78" width="200" height="50" as="geometry" />
        </mxCell>
        <mxCell id="bK1I2ThMuqI34sz6RyVa-174" value="CRUD / kelola barang&amp;nbsp;" style="text;html=1;align=center;verticalAlign=middle;resizable=0;points=[];autosize=1;strokeColor=none;fillColor=none;fontSize=14;" vertex="1" parent="1">
          <mxGeometry x="450" y="742.78" width="160" height="30" as="geometry" />
        </mxCell>
        <mxCell id="bK1I2ThMuqI34sz6RyVa-175" value="Laporan Peminjaman dan Pengembalian" style="text;html=1;align=center;verticalAlign=middle;resizable=0;points=[];autosize=1;strokeColor=none;fillColor=none;fontSize=14;" vertex="1" parent="1">
          <mxGeometry x="255" y="837.78" width="280" height="30" as="geometry" />
        </mxCell>
        <mxCell id="bK1I2ThMuqI34sz6RyVa-176" value="" style="endArrow=none;html=1;rounded=0;fontSize=14;" edge="1" parent="1">
          <mxGeometry width="50" height="50" relative="1" as="geometry">
            <mxPoint x="290" y="837.78" as="sourcePoint" />
            <mxPoint x="500" y="837.78" as="targetPoint" />
          </mxGeometry>
        </mxCell>
        <mxCell id="bK1I2ThMuqI34sz6RyVa-177" value="" style="endArrow=none;html=1;rounded=0;fontSize=14;" edge="1" parent="1">
          <mxGeometry width="50" height="50" relative="1" as="geometry">
            <mxPoint x="290" y="867.78" as="sourcePoint" />
            <mxPoint x="500" y="867.78" as="targetPoint" />
          </mxGeometry>
        </mxCell>
        <mxCell id="bK1I2ThMuqI34sz6RyVa-178" value="" style="endArrow=classic;html=1;rounded=0;exitX=0.913;exitY=0.261;exitDx=0;exitDy=0;exitPerimeter=0;fontSize=14;" edge="1" parent="1">
          <mxGeometry width="50" height="50" relative="1" as="geometry">
            <mxPoint x="450.00000000000006" y="718.27" as="sourcePoint" />
            <mxPoint x="611.31" y="717.78" as="targetPoint" />
          </mxGeometry>
        </mxCell>
        <mxCell id="bK1I2ThMuqI34sz6RyVa-179" value="" style="endArrow=classic;html=1;rounded=0;fontSize=14;" edge="1" parent="1">
          <mxGeometry width="50" height="50" relative="1" as="geometry">
            <mxPoint x="390" y="792.78" as="sourcePoint" />
            <mxPoint x="390" y="827.78" as="targetPoint" />
          </mxGeometry>
        </mxCell>
        <mxCell id="bK1I2ThMuqI34sz6RyVa-180" value="rekap peminjaman / pengembalian" style="text;html=1;align=center;verticalAlign=middle;resizable=0;points=[];autosize=1;strokeColor=none;fillColor=none;fontSize=14;" vertex="1" parent="1">
          <mxGeometry x="115" y="682.78" width="240" height="30" as="geometry" />
        </mxCell>
        <mxCell id="bK1I2ThMuqI34sz6RyVa-181" value="role" style="ellipse;whiteSpace=wrap;html=1;" vertex="1" parent="1">
          <mxGeometry x="-580" y="422.5" width="90" height="30" as="geometry" />
        </mxCell>
        <mxCell id="bK1I2ThMuqI34sz6RyVa-182" value="nama_lengkap" style="ellipse;whiteSpace=wrap;html=1;" vertex="1" parent="1">
          <mxGeometry x="-490" y="452.5" width="90" height="30" as="geometry" />
        </mxCell>
        <mxCell id="bK1I2ThMuqI34sz6RyVa-183" value="jenis_pengguna" style="ellipse;whiteSpace=wrap;html=1;" vertex="1" parent="1">
          <mxGeometry x="-410" y="422.5" width="90" height="30" as="geometry" />
        </mxCell>
        <mxCell id="bK1I2ThMuqI34sz6RyVa-184" value="" style="endArrow=none;html=1;rounded=0;exitX=0.5;exitY=1;exitDx=0;exitDy=0;entryX=1;entryY=0;entryDx=0;entryDy=0;" edge="1" parent="1" source="bK1I2ThMuqI34sz6RyVa-4" target="bK1I2ThMuqI34sz6RyVa-181">
          <mxGeometry width="50" height="50" relative="1" as="geometry">
            <mxPoint x="-430" y="370" as="sourcePoint" />
            <mxPoint x="-525" y="350" as="targetPoint" />
            <Array as="points" />
          </mxGeometry>
        </mxCell>
        <mxCell id="bK1I2ThMuqI34sz6RyVa-186" value="" style="endArrow=none;html=1;rounded=0;exitX=0.5;exitY=1;exitDx=0;exitDy=0;entryX=0.5;entryY=0;entryDx=0;entryDy=0;" edge="1" parent="1" source="bK1I2ThMuqI34sz6RyVa-4" target="bK1I2ThMuqI34sz6RyVa-182">
          <mxGeometry width="50" height="50" relative="1" as="geometry">
            <mxPoint x="-430" y="420" as="sourcePoint" />
            <mxPoint x="-523" y="437" as="targetPoint" />
            <Array as="points" />
          </mxGeometry>
        </mxCell>
        <mxCell id="bK1I2ThMuqI34sz6RyVa-187" value="" style="endArrow=none;html=1;rounded=0;entryX=0.5;entryY=0;entryDx=0;entryDy=0;exitX=0.5;exitY=1;exitDx=0;exitDy=0;" edge="1" parent="1" source="bK1I2ThMuqI34sz6RyVa-4" target="bK1I2ThMuqI34sz6RyVa-183">
          <mxGeometry width="50" height="50" relative="1" as="geometry">
            <mxPoint x="-440" y="420" as="sourcePoint" />
            <mxPoint x="-475" y="463" as="targetPoint" />
            <Array as="points" />
          </mxGeometry>
        </mxCell>
        <mxCell id="bK1I2ThMuqI34sz6RyVa-188" value="status" style="ellipse;whiteSpace=wrap;html=1;" vertex="1" parent="1">
          <mxGeometry x="-95" y="430" width="90" height="30" as="geometry" />
        </mxCell>
        <mxCell id="bK1I2ThMuqI34sz6RyVa-189" value="catatan_admin" style="ellipse;whiteSpace=wrap;html=1;" vertex="1" parent="1">
          <mxGeometry x="10" y="430" width="90" height="30" as="geometry" />
        </mxCell>
        <mxCell id="bK1I2ThMuqI34sz6RyVa-190" value="" style="endArrow=none;html=1;rounded=0;entryX=0.5;entryY=1;entryDx=0;entryDy=0;exitX=0.5;exitY=0;exitDx=0;exitDy=0;" edge="1" parent="1" source="bK1I2ThMuqI34sz6RyVa-188" target="bK1I2ThMuqI34sz6RyVa-12">
          <mxGeometry width="50" height="50" relative="1" as="geometry">
            <mxPoint x="-60" y="440" as="sourcePoint" />
            <mxPoint x="10" y="368" as="targetPoint" />
          </mxGeometry>
        </mxCell>
        <mxCell id="bK1I2ThMuqI34sz6RyVa-191" value="" style="endArrow=none;html=1;rounded=0;entryX=0.5;entryY=1;entryDx=0;entryDy=0;exitX=0.5;exitY=0;exitDx=0;exitDy=0;" edge="1" parent="1" source="bK1I2ThMuqI34sz6RyVa-189" target="bK1I2ThMuqI34sz6RyVa-12">
          <mxGeometry width="50" height="50" relative="1" as="geometry">
            <mxPoint x="-50" y="450" as="sourcePoint" />
            <mxPoint x="10" y="418" as="targetPoint" />
          </mxGeometry>
        </mxCell>
        <mxCell id="bK1I2ThMuqI34sz6RyVa-196" value="" style="edgeStyle=entityRelationEdgeStyle;fontSize=12;html=1;endArrow=ERmandOne;rounded=0;exitX=0;exitY=0.5;exitDx=0;exitDy=0;entryX=1;entryY=0.5;entryDx=0;entryDy=0;" edge="1" parent="1" source="bK1I2ThMuqI34sz6RyVa-26" target="bK1I2ThMuqI34sz6RyVa-12">
          <mxGeometry width="100" height="100" relative="1" as="geometry">
            <mxPoint x="120" y="430" as="sourcePoint" />
            <mxPoint x="180" y="430" as="targetPoint" />
          </mxGeometry>
        </mxCell>
        <mxCell id="bK1I2ThMuqI34sz6RyVa-202" value="&lt;h1&gt;&lt;font style=&quot;font-size: 40px;&quot; face=&quot;Garamond&quot;&gt;ERD&lt;/font&gt;&lt;/h1&gt;" style="text;html=1;align=center;verticalAlign=middle;resizable=0;points=[];autosize=1;strokeColor=none;fillColor=none;" vertex="1" parent="1">
          <mxGeometry x="-55" y="150" width="110" height="90" as="geometry" />
        </mxCell>
        <mxCell id="bK1I2ThMuqI34sz6RyVa-203" value="&lt;h1&gt;&lt;font style=&quot;font-size: 40px;&quot; face=&quot;Garamond&quot;&gt;USECASE&lt;/font&gt;&lt;/h1&gt;" style="text;html=1;align=center;verticalAlign=middle;resizable=0;points=[];autosize=1;strokeColor=none;fillColor=none;" vertex="1" parent="1">
          <mxGeometry x="-520" y="530" width="200" height="90" as="geometry" />
        </mxCell>
        <mxCell id="bK1I2ThMuqI34sz6RyVa-204" value="&lt;h1&gt;&lt;font style=&quot;font-size: 40px;&quot; face=&quot;Garamond&quot;&gt;DFD&lt;/font&gt;&lt;/h1&gt;" style="text;html=1;align=center;verticalAlign=middle;resizable=0;points=[];autosize=1;strokeColor=none;fillColor=none;" vertex="1" parent="1">
          <mxGeometry x="330" y="612.78" width="110" height="90" as="geometry" />
        </mxCell>
        <mxCell id="bK1I2ThMuqI34sz6RyVa-288" value="" style="endArrow=none;html=1;rounded=0;entryX=0.5;entryY=0.5;entryDx=0;entryDy=0;entryPerimeter=0;exitX=1;exitY=0.5;exitDx=0;exitDy=0;" edge="1" parent="1" source="bK1I2ThMuqI34sz6RyVa-131" target="bK1I2ThMuqI34sz6RyVa-140">
          <mxGeometry width="50" height="50" relative="1" as="geometry">
            <mxPoint x="-325" y="815" as="sourcePoint" />
            <mxPoint x="-245" y="735" as="targetPoint" />
          </mxGeometry>
        </mxCell>
        <mxCell id="bK1I2ThMuqI34sz6RyVa-289" value="" style="endArrow=none;html=1;rounded=0;entryX=0.5;entryY=0.5;entryDx=0;entryDy=0;entryPerimeter=0;exitX=1;exitY=0.5;exitDx=0;exitDy=0;" edge="1" parent="1" source="bK1I2ThMuqI34sz6RyVa-134" target="bK1I2ThMuqI34sz6RyVa-140">
          <mxGeometry width="50" height="50" relative="1" as="geometry">
            <mxPoint x="-345" y="660" as="sourcePoint" />
            <mxPoint x="-190" y="685" as="targetPoint" />
          </mxGeometry>
        </mxCell>
        <mxCell id="bK1I2ThMuqI34sz6RyVa-290" value="" style="endArrow=none;html=1;rounded=0;entryX=0.5;entryY=0.5;entryDx=0;entryDy=0;entryPerimeter=0;exitX=1;exitY=0.5;exitDx=0;exitDy=0;" edge="1" parent="1" source="bK1I2ThMuqI34sz6RyVa-133" target="bK1I2ThMuqI34sz6RyVa-140">
          <mxGeometry width="50" height="50" relative="1" as="geometry">
            <mxPoint x="-335" y="670" as="sourcePoint" />
            <mxPoint x="-180" y="695" as="targetPoint" />
          </mxGeometry>
        </mxCell>
        <mxCell id="bK1I2ThMuqI34sz6RyVa-291" value="" style="endArrow=none;html=1;rounded=0;entryX=0.5;entryY=0.5;entryDx=0;entryDy=0;entryPerimeter=0;exitX=1;exitY=0.5;exitDx=0;exitDy=0;" edge="1" parent="1" source="bK1I2ThMuqI34sz6RyVa-132" target="bK1I2ThMuqI34sz6RyVa-140">
          <mxGeometry width="50" height="50" relative="1" as="geometry">
            <mxPoint x="-345" y="780" as="sourcePoint" />
            <mxPoint x="-190" y="685" as="targetPoint" />
          </mxGeometry>
        </mxCell>
        <mxCell id="bK1I2ThMuqI34sz6RyVa-292" value="" style="endArrow=none;html=1;rounded=0;entryX=0.5;entryY=0.5;entryDx=0;entryDy=0;entryPerimeter=0;exitX=1;exitY=0.5;exitDx=0;exitDy=0;" edge="1" parent="1" source="bK1I2ThMuqI34sz6RyVa-135" target="bK1I2ThMuqI34sz6RyVa-140">
          <mxGeometry width="50" height="50" relative="1" as="geometry">
            <mxPoint x="-335" y="790" as="sourcePoint" />
            <mxPoint x="-180" y="695" as="targetPoint" />
          </mxGeometry>
        </mxCell>
        <mxCell id="bK1I2ThMuqI34sz6RyVa-293" value="" style="endArrow=none;html=1;rounded=0;entryX=0.5;entryY=0.5;entryDx=0;entryDy=0;entryPerimeter=0;exitX=1;exitY=0.5;exitDx=0;exitDy=0;" edge="1" parent="1" target="bK1I2ThMuqI34sz6RyVa-140">
          <mxGeometry width="50" height="50" relative="1" as="geometry">
            <mxPoint x="-325" y="800" as="sourcePoint" />
            <mxPoint x="-170" y="705" as="targetPoint" />
          </mxGeometry>
        </mxCell>
        <mxCell id="bK1I2ThMuqI34sz6RyVa-294" value="" style="endArrow=none;html=1;rounded=0;entryX=0.5;entryY=0.5;entryDx=0;entryDy=0;entryPerimeter=0;exitX=1;exitY=0.5;exitDx=0;exitDy=0;" edge="1" parent="1" source="bK1I2ThMuqI34sz6RyVa-136" target="bK1I2ThMuqI34sz6RyVa-140">
          <mxGeometry width="50" height="50" relative="1" as="geometry">
            <mxPoint x="-315" y="810" as="sourcePoint" />
            <mxPoint x="-160" y="715" as="targetPoint" />
          </mxGeometry>
        </mxCell>
        <mxCell id="bK1I2ThMuqI34sz6RyVa-295" value="" style="endArrow=none;html=1;rounded=0;exitX=1;exitY=0.5;exitDx=0;exitDy=0;entryX=0.5;entryY=0.5;entryDx=0;entryDy=0;entryPerimeter=0;" edge="1" parent="1" source="bK1I2ThMuqI34sz6RyVa-138" target="bK1I2ThMuqI34sz6RyVa-140">
          <mxGeometry width="50" height="50" relative="1" as="geometry">
            <mxPoint x="-345" y="960" as="sourcePoint" />
            <mxPoint x="-195" y="675" as="targetPoint" />
          </mxGeometry>
        </mxCell>
        <mxCell id="bK1I2ThMuqI34sz6RyVa-296" value="" style="endArrow=none;html=1;rounded=0;entryX=0;entryY=0.5;entryDx=0;entryDy=0;exitX=0.5;exitY=0.5;exitDx=0;exitDy=0;exitPerimeter=0;" edge="1" parent="1" source="bK1I2ThMuqI34sz6RyVa-143" target="bK1I2ThMuqI34sz6RyVa-131">
          <mxGeometry width="50" height="50" relative="1" as="geometry">
            <mxPoint x="-345" y="960" as="sourcePoint" />
            <mxPoint x="-190" y="685" as="targetPoint" />
          </mxGeometry>
        </mxCell>
        <mxCell id="bK1I2ThMuqI34sz6RyVa-297" value="" style="endArrow=none;html=1;rounded=0;entryX=0;entryY=0.5;entryDx=0;entryDy=0;exitX=0.5;exitY=0.5;exitDx=0;exitDy=0;exitPerimeter=0;" edge="1" parent="1" source="bK1I2ThMuqI34sz6RyVa-143" target="bK1I2ThMuqI34sz6RyVa-133">
          <mxGeometry width="50" height="50" relative="1" as="geometry">
            <mxPoint x="-335" y="970" as="sourcePoint" />
            <mxPoint x="-180" y="695" as="targetPoint" />
          </mxGeometry>
        </mxCell>
        <mxCell id="bK1I2ThMuqI34sz6RyVa-298" value="" style="endArrow=none;html=1;rounded=0;entryX=0;entryY=0.5;entryDx=0;entryDy=0;exitX=0.5;exitY=0.5;exitDx=0;exitDy=0;exitPerimeter=0;" edge="1" parent="1" source="bK1I2ThMuqI34sz6RyVa-143" target="bK1I2ThMuqI34sz6RyVa-132">
          <mxGeometry width="50" height="50" relative="1" as="geometry">
            <mxPoint x="-325" y="980" as="sourcePoint" />
            <mxPoint x="-170" y="705" as="targetPoint" />
          </mxGeometry>
        </mxCell>
        <mxCell id="bK1I2ThMuqI34sz6RyVa-299" value="" style="endArrow=none;html=1;rounded=0;entryX=0;entryY=0.5;entryDx=0;entryDy=0;exitX=0.5;exitY=0.5;exitDx=0;exitDy=0;exitPerimeter=0;" edge="1" parent="1" source="bK1I2ThMuqI34sz6RyVa-143" target="bK1I2ThMuqI34sz6RyVa-135">
          <mxGeometry width="50" height="50" relative="1" as="geometry">
            <mxPoint x="-315" y="990" as="sourcePoint" />
            <mxPoint x="-160" y="715" as="targetPoint" />
          </mxGeometry>
        </mxCell>
        <mxCell id="bK1I2ThMuqI34sz6RyVa-300" value="" style="endArrow=none;html=1;rounded=0;entryX=0;entryY=0.5;entryDx=0;entryDy=0;exitX=0.5;exitY=0.5;exitDx=0;exitDy=0;exitPerimeter=0;" edge="1" parent="1" source="bK1I2ThMuqI34sz6RyVa-143" target="bK1I2ThMuqI34sz6RyVa-138">
          <mxGeometry width="50" height="50" relative="1" as="geometry">
            <mxPoint x="-640" y="905" as="sourcePoint" />
            <mxPoint x="-465" y="900" as="targetPoint" />
          </mxGeometry>
        </mxCell>
        <mxCell id="bK1I2ThMuqI34sz6RyVa-303" value="Login" style="swimlane;childLayout=stackLayout;resizeParent=1;resizeParentMax=0;startSize=20;html=1;" vertex="1" parent="1">
          <mxGeometry x="-469.99999999999955" y="1170" width="245" height="380" as="geometry" />
        </mxCell>
        <mxCell id="bK1I2ThMuqI34sz6RyVa-304" value="User" style="swimlane;startSize=20;html=1;" vertex="1" parent="bK1I2ThMuqI34sz6RyVa-303">
          <mxGeometry y="20" width="120" height="360" as="geometry" />
        </mxCell>
        <mxCell id="bK1I2ThMuqI34sz6RyVa-321" style="edgeStyle=orthogonalEdgeStyle;rounded=0;orthogonalLoop=1;jettySize=auto;html=1;exitX=0.5;exitY=1;exitDx=0;exitDy=0;entryX=0.5;entryY=0;entryDx=0;entryDy=0;" edge="1" parent="bK1I2ThMuqI34sz6RyVa-304" source="bK1I2ThMuqI34sz6RyVa-318" target="bK1I2ThMuqI34sz6RyVa-320">
          <mxGeometry relative="1" as="geometry" />
        </mxCell>
        <mxCell id="bK1I2ThMuqI34sz6RyVa-318" value="melihat halaman login" style="whiteSpace=wrap;html=1;align=center;" vertex="1" parent="bK1I2ThMuqI34sz6RyVa-304">
          <mxGeometry x="9.999999999999545" y="120" width="100" height="40" as="geometry" />
        </mxCell>
        <mxCell id="bK1I2ThMuqI34sz6RyVa-320" value="input username dan password" style="whiteSpace=wrap;html=1;align=center;" vertex="1" parent="bK1I2ThMuqI34sz6RyVa-304">
          <mxGeometry x="9.999999999999545" y="180" width="100" height="40" as="geometry" />
        </mxCell>
        <mxCell id="bK1I2ThMuqI34sz6RyVa-305" value="System" style="swimlane;startSize=20;html=1;" vertex="1" parent="bK1I2ThMuqI34sz6RyVa-303">
          <mxGeometry x="120" y="20" width="125" height="360" as="geometry" />
        </mxCell>
        <mxCell id="bK1I2ThMuqI34sz6RyVa-308" value="Menampilkan halaman login" style="whiteSpace=wrap;html=1;align=center;" vertex="1" parent="bK1I2ThMuqI34sz6RyVa-305">
          <mxGeometry x="9.999999999999545" y="120" width="100" height="40" as="geometry" />
        </mxCell>
        <mxCell id="bK1I2ThMuqI34sz6RyVa-316" value="" style="ellipse;html=1;shape=startState;fillColor=#000000;strokeColor=#ff0000;" vertex="1" parent="bK1I2ThMuqI34sz6RyVa-305">
          <mxGeometry x="44.999999999999545" y="25" width="30" height="30" as="geometry" />
        </mxCell>
        <mxCell id="bK1I2ThMuqI34sz6RyVa-317" value="" style="edgeStyle=orthogonalEdgeStyle;html=1;verticalAlign=bottom;endArrow=open;endSize=8;strokeColor=#ff0000;rounded=0;" edge="1" source="bK1I2ThMuqI34sz6RyVa-316" parent="bK1I2ThMuqI34sz6RyVa-305">
          <mxGeometry relative="1" as="geometry">
            <mxPoint x="59.999999999999545" y="115" as="targetPoint" />
          </mxGeometry>
        </mxCell>
        <mxCell id="bK1I2ThMuqI34sz6RyVa-329" style="edgeStyle=orthogonalEdgeStyle;rounded=0;orthogonalLoop=1;jettySize=auto;html=1;exitX=0.5;exitY=1;exitDx=0;exitDy=0;exitPerimeter=0;entryX=0.5;entryY=0;entryDx=0;entryDy=0;" edge="1" parent="bK1I2ThMuqI34sz6RyVa-305" source="bK1I2ThMuqI34sz6RyVa-322" target="bK1I2ThMuqI34sz6RyVa-327">
          <mxGeometry relative="1" as="geometry" />
        </mxCell>
        <mxCell id="bK1I2ThMuqI34sz6RyVa-322" value="valid?" style="strokeWidth=2;html=1;shape=mxgraph.flowchart.decision;whiteSpace=wrap;" vertex="1" parent="bK1I2ThMuqI34sz6RyVa-305">
          <mxGeometry x="25" y="165" width="70" height="70" as="geometry" />
        </mxCell>
        <mxCell id="bK1I2ThMuqI34sz6RyVa-324" value="ya" style="text;html=1;align=center;verticalAlign=middle;resizable=0;points=[];autosize=1;strokeColor=none;fillColor=none;" vertex="1" parent="bK1I2ThMuqI34sz6RyVa-305">
          <mxGeometry x="19.999999999999545" y="215" width="40" height="30" as="geometry" />
        </mxCell>
        <mxCell id="bK1I2ThMuqI34sz6RyVa-331" style="edgeStyle=orthogonalEdgeStyle;rounded=0;orthogonalLoop=1;jettySize=auto;html=1;exitX=0.5;exitY=1;exitDx=0;exitDy=0;entryX=0.5;entryY=0;entryDx=0;entryDy=0;" edge="1" parent="bK1I2ThMuqI34sz6RyVa-305" source="bK1I2ThMuqI34sz6RyVa-327" target="bK1I2ThMuqI34sz6RyVa-330">
          <mxGeometry relative="1" as="geometry" />
        </mxCell>
        <mxCell id="bK1I2ThMuqI34sz6RyVa-327" value="login berhasil" style="whiteSpace=wrap;html=1;align=center;" vertex="1" parent="bK1I2ThMuqI34sz6RyVa-305">
          <mxGeometry x="9.999999999999545" y="260" width="100" height="40" as="geometry" />
        </mxCell>
        <mxCell id="bK1I2ThMuqI34sz6RyVa-325" value="tidak" style="text;html=1;align=center;verticalAlign=middle;resizable=0;points=[];autosize=1;strokeColor=none;fillColor=none;" vertex="1" parent="bK1I2ThMuqI34sz6RyVa-305">
          <mxGeometry x="74.99999999999955" y="165" width="50" height="30" as="geometry" />
        </mxCell>
        <mxCell id="bK1I2ThMuqI34sz6RyVa-330" value="" style="ellipse;html=1;shape=endState;fillColor=#000000;strokeColor=#ff0000;" vertex="1" parent="bK1I2ThMuqI34sz6RyVa-305">
          <mxGeometry x="44.999999999999545" y="320" width="30" height="30" as="geometry" />
        </mxCell>
        <mxCell id="bK1I2ThMuqI34sz6RyVa-319" value="" style="edgeStyle=orthogonalEdgeStyle;rounded=0;orthogonalLoop=1;jettySize=auto;html=1;" edge="1" parent="bK1I2ThMuqI34sz6RyVa-303" source="bK1I2ThMuqI34sz6RyVa-308" target="bK1I2ThMuqI34sz6RyVa-318">
          <mxGeometry relative="1" as="geometry" />
        </mxCell>
        <mxCell id="bK1I2ThMuqI34sz6RyVa-323" style="edgeStyle=orthogonalEdgeStyle;rounded=0;orthogonalLoop=1;jettySize=auto;html=1;exitX=1;exitY=0.5;exitDx=0;exitDy=0;entryX=0;entryY=0.5;entryDx=0;entryDy=0;entryPerimeter=0;" edge="1" parent="bK1I2ThMuqI34sz6RyVa-303" source="bK1I2ThMuqI34sz6RyVa-320" target="bK1I2ThMuqI34sz6RyVa-322">
          <mxGeometry relative="1" as="geometry" />
        </mxCell>
        <mxCell id="bK1I2ThMuqI34sz6RyVa-326" style="edgeStyle=orthogonalEdgeStyle;rounded=0;orthogonalLoop=1;jettySize=auto;html=1;exitX=1;exitY=0.5;exitDx=0;exitDy=0;exitPerimeter=0;entryX=0.469;entryY=1.014;entryDx=0;entryDy=0;entryPerimeter=0;" edge="1" parent="bK1I2ThMuqI34sz6RyVa-303" source="bK1I2ThMuqI34sz6RyVa-322" target="bK1I2ThMuqI34sz6RyVa-320">
          <mxGeometry relative="1" as="geometry" />
        </mxCell>
        <mxCell id="bK1I2ThMuqI34sz6RyVa-310" value="Text" style="text;html=1;align=center;verticalAlign=middle;resizable=0;points=[];autosize=1;strokeColor=none;fillColor=none;" vertex="1" parent="1">
          <mxGeometry x="-245" y="448" width="50" height="30" as="geometry" />
        </mxCell>
        <mxCell id="bK1I2ThMuqI34sz6RyVa-311" value="" style="edgeStyle=entityRelationEdgeStyle;fontSize=12;html=1;endArrow=ERmandOne;rounded=0;exitX=1;exitY=0.5;exitDx=0;exitDy=0;entryX=0;entryY=0.5;entryDx=0;entryDy=0;" edge="1" parent="1" source="bK1I2ThMuqI34sz6RyVa-26" target="bK1I2ThMuqI34sz6RyVa-29">
          <mxGeometry width="100" height="100" relative="1" as="geometry">
            <mxPoint x="220" y="419.35" as="sourcePoint" />
            <mxPoint x="90" y="419.35" as="targetPoint" />
          </mxGeometry>
        </mxCell>
        <mxCell id="bK1I2ThMuqI34sz6RyVa-312" value="" style="edgeStyle=entityRelationEdgeStyle;fontSize=12;html=1;endArrow=ERmandOne;rounded=0;exitX=0;exitY=0.5;exitDx=0;exitDy=0;entryX=1;entryY=0.5;entryDx=0;entryDy=0;" edge="1" parent="1" source="bK1I2ThMuqI34sz6RyVa-9" target="bK1I2ThMuqI34sz6RyVa-4">
          <mxGeometry width="100" height="100" relative="1" as="geometry">
            <mxPoint x="-195" y="393" as="sourcePoint" />
            <mxPoint x="-50" y="393" as="targetPoint" />
            <Array as="points">
              <mxPoint x="-255" y="429.16" />
            </Array>
          </mxGeometry>
        </mxCell>
        <mxCell id="bK1I2ThMuqI34sz6RyVa-313" value="" style="edgeStyle=entityRelationEdgeStyle;fontSize=12;html=1;endArrow=ERmany;rounded=0;exitX=1;exitY=0.5;exitDx=0;exitDy=0;entryX=0;entryY=0.5;entryDx=0;entryDy=0;" edge="1" parent="1" source="bK1I2ThMuqI34sz6RyVa-9" target="bK1I2ThMuqI34sz6RyVa-12">
          <mxGeometry width="100" height="100" relative="1" as="geometry">
            <mxPoint x="-60" y="510" as="sourcePoint" />
            <mxPoint x="40" y="410" as="targetPoint" />
          </mxGeometry>
        </mxCell>
        <mxCell id="bK1I2ThMuqI34sz6RyVa-369" value="&lt;h1&gt;&lt;font style=&quot;font-size: 40px;&quot; face=&quot;Garamond&quot;&gt;ACTIVITY DIAGRAM ( USER)&lt;/font&gt;&lt;/h1&gt;" style="text;html=1;align=center;verticalAlign=middle;resizable=0;points=[];autosize=1;strokeColor=none;fillColor=none;" vertex="1" parent="1">
          <mxGeometry x="-185" y="1090" width="580" height="90" as="geometry" />
        </mxCell>
        <mxCell id="bK1I2ThMuqI34sz6RyVa-370" value="Dashboard Rekap" style="swimlane;childLayout=stackLayout;resizeParent=1;resizeParentMax=0;startSize=20;html=1;" vertex="1" parent="1">
          <mxGeometry x="87.50000000000045" y="1170" width="245" height="520" as="geometry" />
        </mxCell>
        <mxCell id="bK1I2ThMuqI34sz6RyVa-371" value="User" style="swimlane;startSize=20;html=1;" vertex="1" parent="bK1I2ThMuqI34sz6RyVa-370">
          <mxGeometry y="20" width="120" height="500" as="geometry" />
        </mxCell>
        <mxCell id="bK1I2ThMuqI34sz6RyVa-372" style="edgeStyle=orthogonalEdgeStyle;rounded=0;orthogonalLoop=1;jettySize=auto;html=1;exitX=0.5;exitY=1;exitDx=0;exitDy=0;entryX=0.5;entryY=0;entryDx=0;entryDy=0;" edge="1" parent="bK1I2ThMuqI34sz6RyVa-371" source="bK1I2ThMuqI34sz6RyVa-373">
          <mxGeometry relative="1" as="geometry">
            <mxPoint x="59.999999999999545" y="180" as="targetPoint" />
          </mxGeometry>
        </mxCell>
        <mxCell id="bK1I2ThMuqI34sz6RyVa-373" value="memilih menu" style="whiteSpace=wrap;html=1;align=center;" vertex="1" parent="bK1I2ThMuqI34sz6RyVa-371">
          <mxGeometry x="9.999999999999545" y="120" width="100" height="40" as="geometry" />
        </mxCell>
        <mxCell id="bK1I2ThMuqI34sz6RyVa-380" value="melihat rekap peminjaman?" style="strokeWidth=2;html=1;shape=mxgraph.flowchart.decision;whiteSpace=wrap;" vertex="1" parent="bK1I2ThMuqI34sz6RyVa-371">
          <mxGeometry x="12.5" y="180" width="95" height="100" as="geometry" />
        </mxCell>
        <mxCell id="bK1I2ThMuqI34sz6RyVa-381" value="ya" style="text;html=1;align=center;verticalAlign=middle;resizable=0;points=[];autosize=1;strokeColor=none;fillColor=none;" vertex="1" parent="bK1I2ThMuqI34sz6RyVa-371">
          <mxGeometry x="94.99999999999955" y="200" width="40" height="30" as="geometry" />
        </mxCell>
        <mxCell id="bK1I2ThMuqI34sz6RyVa-384" value="tidak" style="text;html=1;align=center;verticalAlign=middle;resizable=0;points=[];autosize=1;strokeColor=none;fillColor=none;" vertex="1" parent="bK1I2ThMuqI34sz6RyVa-371">
          <mxGeometry x="-4.547473508864641e-13" y="260" width="50" height="30" as="geometry" />
        </mxCell>
        <mxCell id="bK1I2ThMuqI34sz6RyVa-391" value="memilih rekap pengembalian" style="whiteSpace=wrap;html=1;align=center;" vertex="1" parent="bK1I2ThMuqI34sz6RyVa-371">
          <mxGeometry x="7.499999999999545" y="300" width="100" height="40" as="geometry" />
        </mxCell>
        <mxCell id="bK1I2ThMuqI34sz6RyVa-394" style="edgeStyle=orthogonalEdgeStyle;rounded=0;orthogonalLoop=1;jettySize=auto;html=1;exitX=0.5;exitY=1;exitDx=0;exitDy=0;exitPerimeter=0;entryX=0.575;entryY=0;entryDx=0;entryDy=0;entryPerimeter=0;" edge="1" parent="bK1I2ThMuqI34sz6RyVa-371" source="bK1I2ThMuqI34sz6RyVa-380">
          <mxGeometry relative="1" as="geometry">
            <mxPoint x="55" y="280" as="sourcePoint" />
            <mxPoint x="59.99999999999977" y="300" as="targetPoint" />
          </mxGeometry>
        </mxCell>
        <mxCell id="bK1I2ThMuqI34sz6RyVa-375" value="System" style="swimlane;startSize=20;html=1;" vertex="1" parent="bK1I2ThMuqI34sz6RyVa-370">
          <mxGeometry x="120" y="20" width="125" height="500" as="geometry" />
        </mxCell>
        <mxCell id="bK1I2ThMuqI34sz6RyVa-376" value="menampilkan menu dashboard ringkasan rekap" style="whiteSpace=wrap;html=1;align=center;" vertex="1" parent="bK1I2ThMuqI34sz6RyVa-375">
          <mxGeometry x="9.999999999999545" y="120" width="100" height="40" as="geometry" />
        </mxCell>
        <mxCell id="bK1I2ThMuqI34sz6RyVa-377" value="" style="ellipse;html=1;shape=startState;fillColor=#000000;strokeColor=#ff0000;" vertex="1" parent="bK1I2ThMuqI34sz6RyVa-375">
          <mxGeometry x="44.999999999999545" y="25" width="30" height="30" as="geometry" />
        </mxCell>
        <mxCell id="bK1I2ThMuqI34sz6RyVa-378" value="" style="edgeStyle=orthogonalEdgeStyle;html=1;verticalAlign=bottom;endArrow=open;endSize=8;strokeColor=#ff0000;rounded=0;" edge="1" parent="bK1I2ThMuqI34sz6RyVa-375" source="bK1I2ThMuqI34sz6RyVa-377">
          <mxGeometry relative="1" as="geometry">
            <mxPoint x="59.999999999999545" y="115" as="targetPoint" />
          </mxGeometry>
        </mxCell>
        <mxCell id="bK1I2ThMuqI34sz6RyVa-385" value="" style="ellipse;html=1;shape=endState;fillColor=#000000;strokeColor=#ff0000;" vertex="1" parent="bK1I2ThMuqI34sz6RyVa-375">
          <mxGeometry x="47.499999999999545" y="450" width="30" height="30" as="geometry" />
        </mxCell>
        <mxCell id="bK1I2ThMuqI34sz6RyVa-389" value="menampilkan rekap peminjaman" style="whiteSpace=wrap;html=1;align=center;" vertex="1" parent="bK1I2ThMuqI34sz6RyVa-375">
          <mxGeometry x="9.999999999999545" y="210" width="100" height="40" as="geometry" />
        </mxCell>
        <mxCell id="bK1I2ThMuqI34sz6RyVa-395" value="menampilkan rekap pengembalian" style="whiteSpace=wrap;html=1;align=center;" vertex="1" parent="bK1I2ThMuqI34sz6RyVa-375">
          <mxGeometry x="12.499999999999545" y="300" width="100" height="40" as="geometry" />
        </mxCell>
        <mxCell id="bK1I2ThMuqI34sz6RyVa-397" style="edgeStyle=orthogonalEdgeStyle;rounded=0;orthogonalLoop=1;jettySize=auto;html=1;exitX=0.5;exitY=1;exitDx=0;exitDy=0;entryX=0.5;entryY=0;entryDx=0;entryDy=0;" edge="1" parent="bK1I2ThMuqI34sz6RyVa-375" source="bK1I2ThMuqI34sz6RyVa-395" target="bK1I2ThMuqI34sz6RyVa-385">
          <mxGeometry relative="1" as="geometry">
            <mxPoint x="84.99999999999955" y="440" as="targetPoint" />
          </mxGeometry>
        </mxCell>
        <mxCell id="bK1I2ThMuqI34sz6RyVa-386" value="" style="edgeStyle=orthogonalEdgeStyle;rounded=0;orthogonalLoop=1;jettySize=auto;html=1;" edge="1" parent="bK1I2ThMuqI34sz6RyVa-370" source="bK1I2ThMuqI34sz6RyVa-376" target="bK1I2ThMuqI34sz6RyVa-373">
          <mxGeometry relative="1" as="geometry" />
        </mxCell>
        <mxCell id="bK1I2ThMuqI34sz6RyVa-390" style="edgeStyle=orthogonalEdgeStyle;rounded=0;orthogonalLoop=1;jettySize=auto;html=1;exitX=1;exitY=0.5;exitDx=0;exitDy=0;exitPerimeter=0;entryX=0;entryY=0.5;entryDx=0;entryDy=0;" edge="1" parent="bK1I2ThMuqI34sz6RyVa-370" source="bK1I2ThMuqI34sz6RyVa-380" target="bK1I2ThMuqI34sz6RyVa-389">
          <mxGeometry relative="1" as="geometry" />
        </mxCell>
        <mxCell id="bK1I2ThMuqI34sz6RyVa-396" style="edgeStyle=orthogonalEdgeStyle;rounded=0;orthogonalLoop=1;jettySize=auto;html=1;exitX=1;exitY=0.5;exitDx=0;exitDy=0;entryX=0;entryY=0.5;entryDx=0;entryDy=0;" edge="1" parent="bK1I2ThMuqI34sz6RyVa-370" source="bK1I2ThMuqI34sz6RyVa-391" target="bK1I2ThMuqI34sz6RyVa-395">
          <mxGeometry relative="1" as="geometry" />
        </mxCell>
        <mxCell id="bK1I2ThMuqI34sz6RyVa-398" value="Login / Logout" style="swimlane;childLayout=stackLayout;resizeParent=1;resizeParentMax=0;startSize=20;html=1;" vertex="1" parent="1">
          <mxGeometry x="790.0000000000005" y="1170" width="245" height="380" as="geometry" />
        </mxCell>
        <mxCell id="bK1I2ThMuqI34sz6RyVa-399" value="Admin" style="swimlane;startSize=20;html=1;" vertex="1" parent="bK1I2ThMuqI34sz6RyVa-398">
          <mxGeometry y="20" width="120" height="360" as="geometry" />
        </mxCell>
        <mxCell id="bK1I2ThMuqI34sz6RyVa-400" style="edgeStyle=orthogonalEdgeStyle;rounded=0;orthogonalLoop=1;jettySize=auto;html=1;exitX=0.5;exitY=1;exitDx=0;exitDy=0;entryX=0.5;entryY=0;entryDx=0;entryDy=0;" edge="1" parent="bK1I2ThMuqI34sz6RyVa-399" source="bK1I2ThMuqI34sz6RyVa-401" target="bK1I2ThMuqI34sz6RyVa-402">
          <mxGeometry relative="1" as="geometry" />
        </mxCell>
        <mxCell id="bK1I2ThMuqI34sz6RyVa-401" value="melihat halaman login" style="whiteSpace=wrap;html=1;align=center;" vertex="1" parent="bK1I2ThMuqI34sz6RyVa-399">
          <mxGeometry x="9.999999999999545" y="120" width="100" height="40" as="geometry" />
        </mxCell>
        <mxCell id="bK1I2ThMuqI34sz6RyVa-402" value="input username dan password" style="whiteSpace=wrap;html=1;align=center;" vertex="1" parent="bK1I2ThMuqI34sz6RyVa-399">
          <mxGeometry x="9.999999999999545" y="180" width="100" height="40" as="geometry" />
        </mxCell>
        <mxCell id="bK1I2ThMuqI34sz6RyVa-403" value="System" style="swimlane;startSize=20;html=1;" vertex="1" parent="bK1I2ThMuqI34sz6RyVa-398">
          <mxGeometry x="120" y="20" width="125" height="360" as="geometry" />
        </mxCell>
        <mxCell id="bK1I2ThMuqI34sz6RyVa-404" value="Menampilkan halaman login" style="whiteSpace=wrap;html=1;align=center;" vertex="1" parent="bK1I2ThMuqI34sz6RyVa-403">
          <mxGeometry x="9.999999999999545" y="120" width="100" height="40" as="geometry" />
        </mxCell>
        <mxCell id="bK1I2ThMuqI34sz6RyVa-405" value="" style="ellipse;html=1;shape=startState;fillColor=#000000;strokeColor=#ff0000;" vertex="1" parent="bK1I2ThMuqI34sz6RyVa-403">
          <mxGeometry x="44.999999999999545" y="25" width="30" height="30" as="geometry" />
        </mxCell>
        <mxCell id="bK1I2ThMuqI34sz6RyVa-406" value="" style="edgeStyle=orthogonalEdgeStyle;html=1;verticalAlign=bottom;endArrow=open;endSize=8;strokeColor=#ff0000;rounded=0;" edge="1" parent="bK1I2ThMuqI34sz6RyVa-403" source="bK1I2ThMuqI34sz6RyVa-405">
          <mxGeometry relative="1" as="geometry">
            <mxPoint x="59.999999999999545" y="115" as="targetPoint" />
          </mxGeometry>
        </mxCell>
        <mxCell id="bK1I2ThMuqI34sz6RyVa-407" style="edgeStyle=orthogonalEdgeStyle;rounded=0;orthogonalLoop=1;jettySize=auto;html=1;exitX=0.5;exitY=1;exitDx=0;exitDy=0;exitPerimeter=0;entryX=0.5;entryY=0;entryDx=0;entryDy=0;" edge="1" parent="bK1I2ThMuqI34sz6RyVa-403" source="bK1I2ThMuqI34sz6RyVa-408" target="bK1I2ThMuqI34sz6RyVa-411">
          <mxGeometry relative="1" as="geometry" />
        </mxCell>
        <mxCell id="bK1I2ThMuqI34sz6RyVa-408" value="valid?" style="strokeWidth=2;html=1;shape=mxgraph.flowchart.decision;whiteSpace=wrap;" vertex="1" parent="bK1I2ThMuqI34sz6RyVa-403">
          <mxGeometry x="25" y="165" width="70" height="70" as="geometry" />
        </mxCell>
        <mxCell id="bK1I2ThMuqI34sz6RyVa-409" value="ya" style="text;html=1;align=center;verticalAlign=middle;resizable=0;points=[];autosize=1;strokeColor=none;fillColor=none;" vertex="1" parent="bK1I2ThMuqI34sz6RyVa-403">
          <mxGeometry x="19.999999999999545" y="215" width="40" height="30" as="geometry" />
        </mxCell>
        <mxCell id="bK1I2ThMuqI34sz6RyVa-410" style="edgeStyle=orthogonalEdgeStyle;rounded=0;orthogonalLoop=1;jettySize=auto;html=1;exitX=0.5;exitY=1;exitDx=0;exitDy=0;entryX=0.5;entryY=0;entryDx=0;entryDy=0;" edge="1" parent="bK1I2ThMuqI34sz6RyVa-403" source="bK1I2ThMuqI34sz6RyVa-411" target="bK1I2ThMuqI34sz6RyVa-413">
          <mxGeometry relative="1" as="geometry" />
        </mxCell>
        <mxCell id="bK1I2ThMuqI34sz6RyVa-411" value="login berhasil" style="whiteSpace=wrap;html=1;align=center;" vertex="1" parent="bK1I2ThMuqI34sz6RyVa-403">
          <mxGeometry x="9.999999999999545" y="260" width="100" height="40" as="geometry" />
        </mxCell>
        <mxCell id="bK1I2ThMuqI34sz6RyVa-412" value="tidak" style="text;html=1;align=center;verticalAlign=middle;resizable=0;points=[];autosize=1;strokeColor=none;fillColor=none;" vertex="1" parent="bK1I2ThMuqI34sz6RyVa-403">
          <mxGeometry x="74.99999999999955" y="165" width="50" height="30" as="geometry" />
        </mxCell>
        <mxCell id="bK1I2ThMuqI34sz6RyVa-413" value="" style="ellipse;html=1;shape=endState;fillColor=#000000;strokeColor=#ff0000;" vertex="1" parent="bK1I2ThMuqI34sz6RyVa-403">
          <mxGeometry x="44.999999999999545" y="320" width="30" height="30" as="geometry" />
        </mxCell>
        <mxCell id="bK1I2ThMuqI34sz6RyVa-414" value="" style="edgeStyle=orthogonalEdgeStyle;rounded=0;orthogonalLoop=1;jettySize=auto;html=1;" edge="1" parent="bK1I2ThMuqI34sz6RyVa-398" source="bK1I2ThMuqI34sz6RyVa-404" target="bK1I2ThMuqI34sz6RyVa-401">
          <mxGeometry relative="1" as="geometry" />
        </mxCell>
        <mxCell id="bK1I2ThMuqI34sz6RyVa-415" style="edgeStyle=orthogonalEdgeStyle;rounded=0;orthogonalLoop=1;jettySize=auto;html=1;exitX=1;exitY=0.5;exitDx=0;exitDy=0;entryX=0;entryY=0.5;entryDx=0;entryDy=0;entryPerimeter=0;" edge="1" parent="bK1I2ThMuqI34sz6RyVa-398" source="bK1I2ThMuqI34sz6RyVa-402" target="bK1I2ThMuqI34sz6RyVa-408">
          <mxGeometry relative="1" as="geometry" />
        </mxCell>
        <mxCell id="bK1I2ThMuqI34sz6RyVa-416" style="edgeStyle=orthogonalEdgeStyle;rounded=0;orthogonalLoop=1;jettySize=auto;html=1;exitX=1;exitY=0.5;exitDx=0;exitDy=0;exitPerimeter=0;entryX=0.469;entryY=1.014;entryDx=0;entryDy=0;entryPerimeter=0;" edge="1" parent="bK1I2ThMuqI34sz6RyVa-398" source="bK1I2ThMuqI34sz6RyVa-408" target="bK1I2ThMuqI34sz6RyVa-402">
          <mxGeometry relative="1" as="geometry" />
        </mxCell>
        <mxCell id="bK1I2ThMuqI34sz6RyVa-417" value="Dashboard Rekap" style="swimlane;childLayout=stackLayout;resizeParent=1;resizeParentMax=0;startSize=20;html=1;" vertex="1" parent="1">
          <mxGeometry x="1322.5000000000005" y="1170" width="245" height="520" as="geometry" />
        </mxCell>
        <mxCell id="bK1I2ThMuqI34sz6RyVa-418" value="Admin" style="swimlane;startSize=20;html=1;" vertex="1" parent="bK1I2ThMuqI34sz6RyVa-417">
          <mxGeometry y="20" width="120" height="500" as="geometry" />
        </mxCell>
        <mxCell id="bK1I2ThMuqI34sz6RyVa-421" value="melihat rekap peminjaman?" style="strokeWidth=2;html=1;shape=mxgraph.flowchart.decision;whiteSpace=wrap;" vertex="1" parent="bK1I2ThMuqI34sz6RyVa-418">
          <mxGeometry x="10" y="200" width="95" height="100" as="geometry" />
        </mxCell>
        <mxCell id="bK1I2ThMuqI34sz6RyVa-422" value="ya" style="text;html=1;align=center;verticalAlign=middle;resizable=0;points=[];autosize=1;strokeColor=none;fillColor=none;" vertex="1" parent="bK1I2ThMuqI34sz6RyVa-418">
          <mxGeometry x="82.49999999999955" y="220" width="40" height="30" as="geometry" />
        </mxCell>
        <mxCell id="bK1I2ThMuqI34sz6RyVa-423" value="tidak" style="text;html=1;align=center;verticalAlign=middle;resizable=0;points=[];autosize=1;strokeColor=none;fillColor=none;" vertex="1" parent="bK1I2ThMuqI34sz6RyVa-418">
          <mxGeometry x="-4.547473508864641e-13" y="270" width="50" height="30" as="geometry" />
        </mxCell>
        <mxCell id="bK1I2ThMuqI34sz6RyVa-424" value="melihat rekap pengembalian" style="whiteSpace=wrap;html=1;align=center;" vertex="1" parent="bK1I2ThMuqI34sz6RyVa-418">
          <mxGeometry x="7.499999999999545" y="330" width="100" height="40" as="geometry" />
        </mxCell>
        <mxCell id="bK1I2ThMuqI34sz6RyVa-425" style="edgeStyle=orthogonalEdgeStyle;rounded=0;orthogonalLoop=1;jettySize=auto;html=1;exitX=0.5;exitY=1;exitDx=0;exitDy=0;exitPerimeter=0;entryX=0.5;entryY=0;entryDx=0;entryDy=0;" edge="1" parent="bK1I2ThMuqI34sz6RyVa-418" source="bK1I2ThMuqI34sz6RyVa-421" target="bK1I2ThMuqI34sz6RyVa-424">
          <mxGeometry relative="1" as="geometry">
            <mxPoint x="55" y="280" as="sourcePoint" />
            <mxPoint x="59.99999999999977" y="300" as="targetPoint" />
          </mxGeometry>
        </mxCell>
        <mxCell id="bK1I2ThMuqI34sz6RyVa-420" value="memilih menu rekap" style="whiteSpace=wrap;html=1;align=center;" vertex="1" parent="bK1I2ThMuqI34sz6RyVa-418">
          <mxGeometry x="5" y="110" width="100" height="70" as="geometry" />
        </mxCell>
        <mxCell id="bK1I2ThMuqI34sz6RyVa-656" style="edgeStyle=orthogonalEdgeStyle;rounded=0;orthogonalLoop=1;jettySize=auto;html=1;exitX=0.5;exitY=1;exitDx=0;exitDy=0;entryX=0.5;entryY=0;entryDx=0;entryDy=0;entryPerimeter=0;" edge="1" parent="bK1I2ThMuqI34sz6RyVa-418" source="bK1I2ThMuqI34sz6RyVa-420" target="bK1I2ThMuqI34sz6RyVa-421">
          <mxGeometry relative="1" as="geometry" />
        </mxCell>
        <mxCell id="bK1I2ThMuqI34sz6RyVa-426" value="System" style="swimlane;startSize=20;html=1;" vertex="1" parent="bK1I2ThMuqI34sz6RyVa-417">
          <mxGeometry x="120" y="20" width="125" height="500" as="geometry" />
        </mxCell>
        <mxCell id="bK1I2ThMuqI34sz6RyVa-427" value="menampilkan dashboard menu rekap" style="whiteSpace=wrap;html=1;align=center;" vertex="1" parent="bK1I2ThMuqI34sz6RyVa-426">
          <mxGeometry x="10" y="110" width="100" height="70" as="geometry" />
        </mxCell>
        <mxCell id="bK1I2ThMuqI34sz6RyVa-428" value="" style="ellipse;html=1;shape=startState;fillColor=#000000;strokeColor=#ff0000;" vertex="1" parent="bK1I2ThMuqI34sz6RyVa-426">
          <mxGeometry x="44.999999999999545" y="25" width="30" height="30" as="geometry" />
        </mxCell>
        <mxCell id="bK1I2ThMuqI34sz6RyVa-429" value="" style="edgeStyle=orthogonalEdgeStyle;html=1;verticalAlign=bottom;endArrow=open;endSize=8;strokeColor=#ff0000;rounded=0;" edge="1" parent="bK1I2ThMuqI34sz6RyVa-426" source="bK1I2ThMuqI34sz6RyVa-428">
          <mxGeometry relative="1" as="geometry">
            <mxPoint x="59.999999999999545" y="115" as="targetPoint" />
          </mxGeometry>
        </mxCell>
        <mxCell id="bK1I2ThMuqI34sz6RyVa-430" value="" style="ellipse;html=1;shape=endState;fillColor=#000000;strokeColor=#ff0000;" vertex="1" parent="bK1I2ThMuqI34sz6RyVa-426">
          <mxGeometry x="47.499999999999545" y="450" width="30" height="30" as="geometry" />
        </mxCell>
        <mxCell id="bK1I2ThMuqI34sz6RyVa-431" value="menampilkan rekap peminjaman" style="whiteSpace=wrap;html=1;align=center;" vertex="1" parent="bK1I2ThMuqI34sz6RyVa-426">
          <mxGeometry x="12.499999999999545" y="230" width="100" height="40" as="geometry" />
        </mxCell>
        <mxCell id="bK1I2ThMuqI34sz6RyVa-432" value="menampilkan rekap pengembalian" style="whiteSpace=wrap;html=1;align=center;" vertex="1" parent="bK1I2ThMuqI34sz6RyVa-426">
          <mxGeometry x="12.499999999999545" y="330" width="100" height="40" as="geometry" />
        </mxCell>
        <mxCell id="bK1I2ThMuqI34sz6RyVa-433" style="edgeStyle=orthogonalEdgeStyle;rounded=0;orthogonalLoop=1;jettySize=auto;html=1;exitX=0.5;exitY=1;exitDx=0;exitDy=0;entryX=0.5;entryY=0;entryDx=0;entryDy=0;" edge="1" parent="bK1I2ThMuqI34sz6RyVa-426" source="bK1I2ThMuqI34sz6RyVa-432" target="bK1I2ThMuqI34sz6RyVa-430">
          <mxGeometry relative="1" as="geometry">
            <mxPoint x="84.99999999999955" y="440" as="targetPoint" />
          </mxGeometry>
        </mxCell>
        <mxCell id="bK1I2ThMuqI34sz6RyVa-435" style="edgeStyle=orthogonalEdgeStyle;rounded=0;orthogonalLoop=1;jettySize=auto;html=1;exitX=1;exitY=0.5;exitDx=0;exitDy=0;exitPerimeter=0;entryX=0;entryY=0.5;entryDx=0;entryDy=0;" edge="1" parent="bK1I2ThMuqI34sz6RyVa-417" source="bK1I2ThMuqI34sz6RyVa-421" target="bK1I2ThMuqI34sz6RyVa-431">
          <mxGeometry relative="1" as="geometry" />
        </mxCell>
        <mxCell id="bK1I2ThMuqI34sz6RyVa-436" style="edgeStyle=orthogonalEdgeStyle;rounded=0;orthogonalLoop=1;jettySize=auto;html=1;exitX=1;exitY=0.5;exitDx=0;exitDy=0;entryX=0;entryY=0.5;entryDx=0;entryDy=0;" edge="1" parent="bK1I2ThMuqI34sz6RyVa-417" source="bK1I2ThMuqI34sz6RyVa-424" target="bK1I2ThMuqI34sz6RyVa-432">
          <mxGeometry relative="1" as="geometry" />
        </mxCell>
        <mxCell id="bK1I2ThMuqI34sz6RyVa-655" style="edgeStyle=orthogonalEdgeStyle;rounded=0;orthogonalLoop=1;jettySize=auto;html=1;exitX=0;exitY=0.5;exitDx=0;exitDy=0;entryX=1;entryY=0.5;entryDx=0;entryDy=0;" edge="1" parent="bK1I2ThMuqI34sz6RyVa-417" source="bK1I2ThMuqI34sz6RyVa-427" target="bK1I2ThMuqI34sz6RyVa-420">
          <mxGeometry relative="1" as="geometry" />
        </mxCell>
        <mxCell id="bK1I2ThMuqI34sz6RyVa-437" value="&lt;h1&gt;&lt;font style=&quot;font-size: 40px;&quot; face=&quot;Garamond&quot;&gt;ACTIVITY DIAGRAM ( ADMIN)&lt;/font&gt;&lt;/h1&gt;" style="text;html=1;align=center;verticalAlign=middle;resizable=0;points=[];autosize=1;strokeColor=none;fillColor=none;" vertex="1" parent="1">
          <mxGeometry x="1225" y="1060" width="610" height="90" as="geometry" />
        </mxCell>
        <mxCell id="bK1I2ThMuqI34sz6RyVa-467" value="Peminjaman dan Pengembalian" style="swimlane;childLayout=stackLayout;resizeParent=1;resizeParentMax=0;startSize=20;html=1;" vertex="1" parent="1">
          <mxGeometry x="360.00000000000045" y="1170" width="245" height="460" as="geometry" />
        </mxCell>
        <mxCell id="bK1I2ThMuqI34sz6RyVa-468" value="User" style="swimlane;startSize=20;html=1;" vertex="1" parent="bK1I2ThMuqI34sz6RyVa-467">
          <mxGeometry y="20" width="120" height="440" as="geometry" />
        </mxCell>
        <mxCell id="bK1I2ThMuqI34sz6RyVa-469" style="edgeStyle=orthogonalEdgeStyle;rounded=0;orthogonalLoop=1;jettySize=auto;html=1;exitX=0.5;exitY=1;exitDx=0;exitDy=0;entryX=0.5;entryY=0;entryDx=0;entryDy=0;" edge="1" parent="bK1I2ThMuqI34sz6RyVa-468" source="bK1I2ThMuqI34sz6RyVa-470">
          <mxGeometry relative="1" as="geometry">
            <mxPoint x="59.999999999999545" y="180" as="targetPoint" />
          </mxGeometry>
        </mxCell>
        <mxCell id="bK1I2ThMuqI34sz6RyVa-470" value="memilih menu peminjaman &amp;amp; pengembalian" style="whiteSpace=wrap;html=1;align=center;" vertex="1" parent="bK1I2ThMuqI34sz6RyVa-468">
          <mxGeometry x="10" y="115" width="100" height="50" as="geometry" />
        </mxCell>
        <mxCell id="bK1I2ThMuqI34sz6RyVa-471" value="melakukan peminjaman?" style="strokeWidth=2;html=1;shape=mxgraph.flowchart.decision;whiteSpace=wrap;" vertex="1" parent="bK1I2ThMuqI34sz6RyVa-468">
          <mxGeometry x="12.5" y="180" width="95" height="100" as="geometry" />
        </mxCell>
        <mxCell id="bK1I2ThMuqI34sz6RyVa-472" value="ya" style="text;html=1;align=center;verticalAlign=middle;resizable=0;points=[];autosize=1;strokeColor=none;fillColor=none;" vertex="1" parent="bK1I2ThMuqI34sz6RyVa-468">
          <mxGeometry x="84.99999999999955" y="190" width="40" height="30" as="geometry" />
        </mxCell>
        <mxCell id="bK1I2ThMuqI34sz6RyVa-473" value="tidak" style="text;html=1;align=center;verticalAlign=middle;resizable=0;points=[];autosize=1;strokeColor=none;fillColor=none;" vertex="1" parent="bK1I2ThMuqI34sz6RyVa-468">
          <mxGeometry x="-4.547473508864641e-13" y="260" width="50" height="30" as="geometry" />
        </mxCell>
        <mxCell id="bK1I2ThMuqI34sz6RyVa-474" value="melakukan pengembalian" style="whiteSpace=wrap;html=1;align=center;" vertex="1" parent="bK1I2ThMuqI34sz6RyVa-468">
          <mxGeometry x="7.499999999999545" y="300" width="100" height="40" as="geometry" />
        </mxCell>
        <mxCell id="bK1I2ThMuqI34sz6RyVa-475" style="edgeStyle=orthogonalEdgeStyle;rounded=0;orthogonalLoop=1;jettySize=auto;html=1;exitX=0.5;exitY=1;exitDx=0;exitDy=0;exitPerimeter=0;entryX=0.575;entryY=0;entryDx=0;entryDy=0;entryPerimeter=0;" edge="1" parent="bK1I2ThMuqI34sz6RyVa-468" source="bK1I2ThMuqI34sz6RyVa-471">
          <mxGeometry relative="1" as="geometry">
            <mxPoint x="55" y="280" as="sourcePoint" />
            <mxPoint x="59.99999999999977" y="300" as="targetPoint" />
          </mxGeometry>
        </mxCell>
        <mxCell id="bK1I2ThMuqI34sz6RyVa-476" value="System" style="swimlane;startSize=20;html=1;" vertex="1" parent="bK1I2ThMuqI34sz6RyVa-467">
          <mxGeometry x="120" y="20" width="125" height="440" as="geometry" />
        </mxCell>
        <mxCell id="bK1I2ThMuqI34sz6RyVa-477" value="menampilkan menu peminjaman &amp;amp; pengembalian" style="whiteSpace=wrap;html=1;align=center;" vertex="1" parent="bK1I2ThMuqI34sz6RyVa-476">
          <mxGeometry x="10" y="110" width="100" height="60" as="geometry" />
        </mxCell>
        <mxCell id="bK1I2ThMuqI34sz6RyVa-478" value="" style="ellipse;html=1;shape=startState;fillColor=#000000;strokeColor=#ff0000;" vertex="1" parent="bK1I2ThMuqI34sz6RyVa-476">
          <mxGeometry x="44.999999999999545" y="25" width="30" height="30" as="geometry" />
        </mxCell>
        <mxCell id="bK1I2ThMuqI34sz6RyVa-479" value="" style="edgeStyle=orthogonalEdgeStyle;html=1;verticalAlign=bottom;endArrow=open;endSize=8;strokeColor=#ff0000;rounded=0;" edge="1" parent="bK1I2ThMuqI34sz6RyVa-476" source="bK1I2ThMuqI34sz6RyVa-478">
          <mxGeometry relative="1" as="geometry">
            <mxPoint x="59.999999999999545" y="115" as="targetPoint" />
          </mxGeometry>
        </mxCell>
        <mxCell id="bK1I2ThMuqI34sz6RyVa-480" value="" style="ellipse;html=1;shape=endState;fillColor=#000000;strokeColor=#ff0000;" vertex="1" parent="bK1I2ThMuqI34sz6RyVa-476">
          <mxGeometry x="44.999999999999545" y="390" width="30" height="30" as="geometry" />
        </mxCell>
        <mxCell id="bK1I2ThMuqI34sz6RyVa-481" value="permintaan peminjaman berhasil" style="whiteSpace=wrap;html=1;align=center;" vertex="1" parent="bK1I2ThMuqI34sz6RyVa-476">
          <mxGeometry x="9.999999999999545" y="210" width="100" height="40" as="geometry" />
        </mxCell>
        <mxCell id="bK1I2ThMuqI34sz6RyVa-488" style="edgeStyle=orthogonalEdgeStyle;rounded=0;orthogonalLoop=1;jettySize=auto;html=1;exitX=0.5;exitY=1;exitDx=0;exitDy=0;entryX=0.5;entryY=0;entryDx=0;entryDy=0;" edge="1" parent="bK1I2ThMuqI34sz6RyVa-476" source="bK1I2ThMuqI34sz6RyVa-482" target="bK1I2ThMuqI34sz6RyVa-480">
          <mxGeometry relative="1" as="geometry" />
        </mxCell>
        <mxCell id="bK1I2ThMuqI34sz6RyVa-482" value="permintaan pengembalian berhasil" style="whiteSpace=wrap;html=1;align=center;" vertex="1" parent="bK1I2ThMuqI34sz6RyVa-476">
          <mxGeometry x="9.999999999999545" y="300" width="100" height="40" as="geometry" />
        </mxCell>
        <mxCell id="bK1I2ThMuqI34sz6RyVa-484" value="" style="edgeStyle=orthogonalEdgeStyle;rounded=0;orthogonalLoop=1;jettySize=auto;html=1;" edge="1" parent="bK1I2ThMuqI34sz6RyVa-467" source="bK1I2ThMuqI34sz6RyVa-477" target="bK1I2ThMuqI34sz6RyVa-470">
          <mxGeometry relative="1" as="geometry" />
        </mxCell>
        <mxCell id="bK1I2ThMuqI34sz6RyVa-485" style="edgeStyle=orthogonalEdgeStyle;rounded=0;orthogonalLoop=1;jettySize=auto;html=1;exitX=1;exitY=0.5;exitDx=0;exitDy=0;exitPerimeter=0;entryX=0;entryY=0.5;entryDx=0;entryDy=0;" edge="1" parent="bK1I2ThMuqI34sz6RyVa-467" source="bK1I2ThMuqI34sz6RyVa-471" target="bK1I2ThMuqI34sz6RyVa-481">
          <mxGeometry relative="1" as="geometry" />
        </mxCell>
        <mxCell id="bK1I2ThMuqI34sz6RyVa-486" style="edgeStyle=orthogonalEdgeStyle;rounded=0;orthogonalLoop=1;jettySize=auto;html=1;exitX=1;exitY=0.5;exitDx=0;exitDy=0;entryX=0;entryY=0.5;entryDx=0;entryDy=0;" edge="1" parent="bK1I2ThMuqI34sz6RyVa-467" source="bK1I2ThMuqI34sz6RyVa-474" target="bK1I2ThMuqI34sz6RyVa-482">
          <mxGeometry relative="1" as="geometry" />
        </mxCell>
        <mxCell id="bK1I2ThMuqI34sz6RyVa-489" value="Kelola Barang Sarana &amp;amp; Prasarana" style="swimlane;childLayout=stackLayout;resizeParent=1;resizeParentMax=0;startSize=20;html=1;" vertex="1" parent="1">
          <mxGeometry x="1600.0000000000005" y="1170" width="245" height="390" as="geometry" />
        </mxCell>
        <mxCell id="bK1I2ThMuqI34sz6RyVa-490" value="Admin" style="swimlane;startSize=20;html=1;" vertex="1" parent="bK1I2ThMuqI34sz6RyVa-489">
          <mxGeometry y="20" width="120" height="370" as="geometry" />
        </mxCell>
        <mxCell id="bK1I2ThMuqI34sz6RyVa-491" style="edgeStyle=orthogonalEdgeStyle;rounded=0;orthogonalLoop=1;jettySize=auto;html=1;exitX=0.5;exitY=1;exitDx=0;exitDy=0;entryX=0.5;entryY=0;entryDx=0;entryDy=0;" edge="1" parent="bK1I2ThMuqI34sz6RyVa-490" source="bK1I2ThMuqI34sz6RyVa-492">
          <mxGeometry relative="1" as="geometry">
            <mxPoint x="59.999999999999545" y="180" as="targetPoint" />
          </mxGeometry>
        </mxCell>
        <mxCell id="bK1I2ThMuqI34sz6RyVa-492" value="melihat data barang sarana &amp;amp; prasarana" style="whiteSpace=wrap;html=1;align=center;" vertex="1" parent="bK1I2ThMuqI34sz6RyVa-490">
          <mxGeometry x="9.999999999999545" y="120" width="100" height="40" as="geometry" />
        </mxCell>
        <mxCell id="bK1I2ThMuqI34sz6RyVa-493" value="CRUD/kelola barang sarpras?" style="strokeWidth=2;html=1;shape=mxgraph.flowchart.decision;whiteSpace=wrap;" vertex="1" parent="bK1I2ThMuqI34sz6RyVa-490">
          <mxGeometry x="5" y="180" width="110" height="100" as="geometry" />
        </mxCell>
        <mxCell id="bK1I2ThMuqI34sz6RyVa-494" value="ya" style="text;html=1;align=center;verticalAlign=middle;resizable=0;points=[];autosize=1;strokeColor=none;fillColor=none;" vertex="1" parent="bK1I2ThMuqI34sz6RyVa-490">
          <mxGeometry x="94.99999999999955" y="200" width="40" height="30" as="geometry" />
        </mxCell>
        <mxCell id="bK1I2ThMuqI34sz6RyVa-495" value="tidak" style="text;html=1;align=center;verticalAlign=middle;resizable=0;points=[];autosize=1;strokeColor=none;fillColor=none;" vertex="1" parent="bK1I2ThMuqI34sz6RyVa-490">
          <mxGeometry x="-4.547473508864641e-13" y="260" width="50" height="30" as="geometry" />
        </mxCell>
        <mxCell id="bK1I2ThMuqI34sz6RyVa-498" value="System" style="swimlane;startSize=20;html=1;" vertex="1" parent="bK1I2ThMuqI34sz6RyVa-489">
          <mxGeometry x="120" y="20" width="125" height="370" as="geometry" />
        </mxCell>
        <mxCell id="bK1I2ThMuqI34sz6RyVa-499" value="menampilkan data barang sarana &amp;amp; prasarana" style="whiteSpace=wrap;html=1;align=center;" vertex="1" parent="bK1I2ThMuqI34sz6RyVa-498">
          <mxGeometry x="10" y="120" width="110" height="40" as="geometry" />
        </mxCell>
        <mxCell id="bK1I2ThMuqI34sz6RyVa-500" value="" style="ellipse;html=1;shape=startState;fillColor=#000000;strokeColor=#ff0000;" vertex="1" parent="bK1I2ThMuqI34sz6RyVa-498">
          <mxGeometry x="44.999999999999545" y="25" width="30" height="30" as="geometry" />
        </mxCell>
        <mxCell id="bK1I2ThMuqI34sz6RyVa-501" value="" style="edgeStyle=orthogonalEdgeStyle;html=1;verticalAlign=bottom;endArrow=open;endSize=8;strokeColor=#ff0000;rounded=0;" edge="1" parent="bK1I2ThMuqI34sz6RyVa-498" source="bK1I2ThMuqI34sz6RyVa-500">
          <mxGeometry relative="1" as="geometry">
            <mxPoint x="59.999999999999545" y="115" as="targetPoint" />
          </mxGeometry>
        </mxCell>
        <mxCell id="bK1I2ThMuqI34sz6RyVa-502" value="" style="ellipse;html=1;shape=endState;fillColor=#000000;strokeColor=#ff0000;" vertex="1" parent="bK1I2ThMuqI34sz6RyVa-498">
          <mxGeometry x="44.999999999999545" y="320" width="30" height="30" as="geometry" />
        </mxCell>
        <mxCell id="bK1I2ThMuqI34sz6RyVa-503" value="CRUD/kelola barang sarana &amp;amp; prasarana" style="whiteSpace=wrap;html=1;align=center;" vertex="1" parent="bK1I2ThMuqI34sz6RyVa-498">
          <mxGeometry x="12.499999999999545" y="210" width="100" height="40" as="geometry" />
        </mxCell>
        <mxCell id="bK1I2ThMuqI34sz6RyVa-506" value="" style="edgeStyle=orthogonalEdgeStyle;rounded=0;orthogonalLoop=1;jettySize=auto;html=1;" edge="1" parent="bK1I2ThMuqI34sz6RyVa-489" source="bK1I2ThMuqI34sz6RyVa-499" target="bK1I2ThMuqI34sz6RyVa-492">
          <mxGeometry relative="1" as="geometry" />
        </mxCell>
        <mxCell id="bK1I2ThMuqI34sz6RyVa-507" style="edgeStyle=orthogonalEdgeStyle;rounded=0;orthogonalLoop=1;jettySize=auto;html=1;exitX=1;exitY=0.5;exitDx=0;exitDy=0;exitPerimeter=0;entryX=0;entryY=0.5;entryDx=0;entryDy=0;" edge="1" parent="bK1I2ThMuqI34sz6RyVa-489" source="bK1I2ThMuqI34sz6RyVa-493" target="bK1I2ThMuqI34sz6RyVa-503">
          <mxGeometry relative="1" as="geometry" />
        </mxCell>
        <mxCell id="bK1I2ThMuqI34sz6RyVa-497" style="edgeStyle=orthogonalEdgeStyle;rounded=0;orthogonalLoop=1;jettySize=auto;html=1;exitX=0.5;exitY=1;exitDx=0;exitDy=0;exitPerimeter=0;entryX=0.5;entryY=0;entryDx=0;entryDy=0;" edge="1" parent="bK1I2ThMuqI34sz6RyVa-489" source="bK1I2ThMuqI34sz6RyVa-493" target="bK1I2ThMuqI34sz6RyVa-502">
          <mxGeometry relative="1" as="geometry">
            <mxPoint x="55" y="300" as="sourcePoint" />
            <mxPoint x="159.99999999999955" y="420" as="targetPoint" />
          </mxGeometry>
        </mxCell>
        <mxCell id="bK1I2ThMuqI34sz6RyVa-509" value="Approval Peminjaman &amp;amp; Pengembalian" style="swimlane;childLayout=stackLayout;resizeParent=1;resizeParentMax=0;startSize=20;html=1;" vertex="1" parent="1">
          <mxGeometry x="1870.0000000000005" y="1170" width="245" height="540" as="geometry" />
        </mxCell>
        <mxCell id="bK1I2ThMuqI34sz6RyVa-510" value="Admin" style="swimlane;startSize=20;html=1;" vertex="1" parent="bK1I2ThMuqI34sz6RyVa-509">
          <mxGeometry y="20" width="120" height="520" as="geometry" />
        </mxCell>
        <mxCell id="bK1I2ThMuqI34sz6RyVa-512" value="melihat permintaan peminjaman &amp;amp; pengembalian" style="whiteSpace=wrap;html=1;align=center;" vertex="1" parent="bK1I2ThMuqI34sz6RyVa-510">
          <mxGeometry x="10" y="120" width="100" height="80" as="geometry" />
        </mxCell>
        <mxCell id="bK1I2ThMuqI34sz6RyVa-513" value="approve peminjaman?" style="strokeWidth=2;html=1;shape=mxgraph.flowchart.decision;whiteSpace=wrap;" vertex="1" parent="bK1I2ThMuqI34sz6RyVa-510">
          <mxGeometry x="5" y="220" width="110" height="100" as="geometry" />
        </mxCell>
        <mxCell id="bK1I2ThMuqI34sz6RyVa-525" style="edgeStyle=orthogonalEdgeStyle;rounded=0;orthogonalLoop=1;jettySize=auto;html=1;exitX=0.5;exitY=1;exitDx=0;exitDy=0;entryX=0.5;entryY=0;entryDx=0;entryDy=0;entryPerimeter=0;" edge="1" parent="bK1I2ThMuqI34sz6RyVa-510" source="bK1I2ThMuqI34sz6RyVa-512" target="bK1I2ThMuqI34sz6RyVa-513">
          <mxGeometry relative="1" as="geometry" />
        </mxCell>
        <mxCell id="bK1I2ThMuqI34sz6RyVa-526" value="ya" style="text;html=1;align=center;verticalAlign=middle;resizable=0;points=[];autosize=1;strokeColor=none;fillColor=none;" vertex="1" parent="bK1I2ThMuqI34sz6RyVa-510">
          <mxGeometry x="74.99999999999955" y="220" width="40" height="30" as="geometry" />
        </mxCell>
        <mxCell id="bK1I2ThMuqI34sz6RyVa-527" value="tidak" style="text;html=1;align=center;verticalAlign=middle;resizable=0;points=[];autosize=1;strokeColor=none;fillColor=none;" vertex="1" parent="bK1I2ThMuqI34sz6RyVa-510">
          <mxGeometry x="-4.547473508864641e-13" y="295" width="50" height="30" as="geometry" />
        </mxCell>
        <mxCell id="bK1I2ThMuqI34sz6RyVa-535" style="edgeStyle=orthogonalEdgeStyle;rounded=0;orthogonalLoop=1;jettySize=auto;html=1;exitX=1;exitY=0.5;exitDx=0;exitDy=0;exitPerimeter=0;" edge="1" parent="bK1I2ThMuqI34sz6RyVa-510" source="bK1I2ThMuqI34sz6RyVa-530">
          <mxGeometry relative="1" as="geometry">
            <mxPoint x="129.99999999999955" y="389.8888888888887" as="targetPoint" />
          </mxGeometry>
        </mxCell>
        <mxCell id="bK1I2ThMuqI34sz6RyVa-530" value="approve pengembalian?" style="strokeWidth=2;html=1;shape=mxgraph.flowchart.decision;whiteSpace=wrap;" vertex="1" parent="bK1I2ThMuqI34sz6RyVa-510">
          <mxGeometry x="5" y="340" width="110" height="100" as="geometry" />
        </mxCell>
        <mxCell id="bK1I2ThMuqI34sz6RyVa-531" value="ya" style="text;html=1;align=center;verticalAlign=middle;resizable=0;points=[];autosize=1;strokeColor=none;fillColor=none;" vertex="1" parent="bK1I2ThMuqI34sz6RyVa-510">
          <mxGeometry x="79.99999999999955" y="340" width="40" height="30" as="geometry" />
        </mxCell>
        <mxCell id="bK1I2ThMuqI34sz6RyVa-532" value="tidak" style="text;html=1;align=center;verticalAlign=middle;resizable=0;points=[];autosize=1;strokeColor=none;fillColor=none;" vertex="1" parent="bK1I2ThMuqI34sz6RyVa-510">
          <mxGeometry x="-10.000000000000455" y="410" width="50" height="30" as="geometry" />
        </mxCell>
        <mxCell id="bK1I2ThMuqI34sz6RyVa-533" style="edgeStyle=orthogonalEdgeStyle;rounded=0;orthogonalLoop=1;jettySize=auto;html=1;exitX=0.5;exitY=1;exitDx=0;exitDy=0;exitPerimeter=0;entryX=0.5;entryY=0;entryDx=0;entryDy=0;entryPerimeter=0;" edge="1" parent="bK1I2ThMuqI34sz6RyVa-510" source="bK1I2ThMuqI34sz6RyVa-513" target="bK1I2ThMuqI34sz6RyVa-530">
          <mxGeometry relative="1" as="geometry" />
        </mxCell>
        <mxCell id="bK1I2ThMuqI34sz6RyVa-516" value="System" style="swimlane;startSize=20;html=1;" vertex="1" parent="bK1I2ThMuqI34sz6RyVa-509">
          <mxGeometry x="120" y="20" width="125" height="520" as="geometry" />
        </mxCell>
        <mxCell id="bK1I2ThMuqI34sz6RyVa-517" value="menampilkan permintaan peminjaman &amp;amp; pengembalian" style="whiteSpace=wrap;html=1;align=center;" vertex="1" parent="bK1I2ThMuqI34sz6RyVa-516">
          <mxGeometry x="10" y="120" width="110" height="80" as="geometry" />
        </mxCell>
        <mxCell id="bK1I2ThMuqI34sz6RyVa-518" value="" style="ellipse;html=1;shape=startState;fillColor=#000000;strokeColor=#ff0000;" vertex="1" parent="bK1I2ThMuqI34sz6RyVa-516">
          <mxGeometry x="44.999999999999545" y="25" width="30" height="30" as="geometry" />
        </mxCell>
        <mxCell id="bK1I2ThMuqI34sz6RyVa-519" value="" style="edgeStyle=orthogonalEdgeStyle;html=1;verticalAlign=bottom;endArrow=open;endSize=8;strokeColor=#ff0000;rounded=0;" edge="1" parent="bK1I2ThMuqI34sz6RyVa-516" source="bK1I2ThMuqI34sz6RyVa-518">
          <mxGeometry relative="1" as="geometry">
            <mxPoint x="59.999999999999545" y="115" as="targetPoint" />
          </mxGeometry>
        </mxCell>
        <mxCell id="bK1I2ThMuqI34sz6RyVa-520" value="" style="ellipse;html=1;shape=endState;fillColor=#000000;strokeColor=#ff0000;" vertex="1" parent="bK1I2ThMuqI34sz6RyVa-516">
          <mxGeometry x="44.999999999999545" y="480" width="30" height="30" as="geometry" />
        </mxCell>
        <mxCell id="bK1I2ThMuqI34sz6RyVa-528" value="approval peminjaman berhasil" style="whiteSpace=wrap;html=1;align=center;" vertex="1" parent="bK1I2ThMuqI34sz6RyVa-516">
          <mxGeometry x="19.999999999999545" y="250" width="100" height="40" as="geometry" />
        </mxCell>
        <mxCell id="bK1I2ThMuqI34sz6RyVa-534" value="approval pengembalian berhasil" style="whiteSpace=wrap;html=1;align=center;" vertex="1" parent="bK1I2ThMuqI34sz6RyVa-516">
          <mxGeometry x="12.499999999999545" y="370" width="100" height="40" as="geometry" />
        </mxCell>
        <mxCell id="bK1I2ThMuqI34sz6RyVa-522" value="" style="edgeStyle=orthogonalEdgeStyle;rounded=0;orthogonalLoop=1;jettySize=auto;html=1;" edge="1" parent="bK1I2ThMuqI34sz6RyVa-509" source="bK1I2ThMuqI34sz6RyVa-517" target="bK1I2ThMuqI34sz6RyVa-512">
          <mxGeometry relative="1" as="geometry" />
        </mxCell>
        <mxCell id="bK1I2ThMuqI34sz6RyVa-529" style="edgeStyle=orthogonalEdgeStyle;rounded=0;orthogonalLoop=1;jettySize=auto;html=1;exitX=1;exitY=0.5;exitDx=0;exitDy=0;exitPerimeter=0;entryX=0;entryY=0.5;entryDx=0;entryDy=0;" edge="1" parent="bK1I2ThMuqI34sz6RyVa-509" source="bK1I2ThMuqI34sz6RyVa-513" target="bK1I2ThMuqI34sz6RyVa-528">
          <mxGeometry relative="1" as="geometry" />
        </mxCell>
        <mxCell id="bK1I2ThMuqI34sz6RyVa-536" style="edgeStyle=orthogonalEdgeStyle;rounded=0;orthogonalLoop=1;jettySize=auto;html=1;exitX=0.5;exitY=1;exitDx=0;exitDy=0;exitPerimeter=0;entryX=0.5;entryY=0;entryDx=0;entryDy=0;" edge="1" parent="bK1I2ThMuqI34sz6RyVa-509" source="bK1I2ThMuqI34sz6RyVa-530" target="bK1I2ThMuqI34sz6RyVa-520">
          <mxGeometry relative="1" as="geometry" />
        </mxCell>
        <mxCell id="bK1I2ThMuqI34sz6RyVa-537" value="Report Peminjaman &amp;amp; Pengembalian" style="swimlane;childLayout=stackLayout;resizeParent=1;resizeParentMax=0;startSize=20;html=1;" vertex="1" parent="1">
          <mxGeometry x="2145.0000000000005" y="1170" width="245" height="300" as="geometry" />
        </mxCell>
        <mxCell id="bK1I2ThMuqI34sz6RyVa-538" value="Admin" style="swimlane;startSize=20;html=1;" vertex="1" parent="bK1I2ThMuqI34sz6RyVa-537">
          <mxGeometry y="20" width="120" height="280" as="geometry" />
        </mxCell>
        <mxCell id="bK1I2ThMuqI34sz6RyVa-540" value="melihat report peminjaman &amp;amp; pengembalian" style="whiteSpace=wrap;html=1;align=center;" vertex="1" parent="bK1I2ThMuqI34sz6RyVa-538">
          <mxGeometry x="10" y="120" width="100" height="70" as="geometry" />
        </mxCell>
        <mxCell id="bK1I2ThMuqI34sz6RyVa-542" value="System" style="swimlane;startSize=20;html=1;" vertex="1" parent="bK1I2ThMuqI34sz6RyVa-537">
          <mxGeometry x="120" y="20" width="125" height="280" as="geometry" />
        </mxCell>
        <mxCell id="bK1I2ThMuqI34sz6RyVa-543" value="menampilkan report peminjaman &amp;amp; pengembalian" style="whiteSpace=wrap;html=1;align=center;" vertex="1" parent="bK1I2ThMuqI34sz6RyVa-542">
          <mxGeometry x="10" y="120" width="100" height="70" as="geometry" />
        </mxCell>
        <mxCell id="bK1I2ThMuqI34sz6RyVa-544" value="" style="ellipse;html=1;shape=startState;fillColor=#000000;strokeColor=#ff0000;" vertex="1" parent="bK1I2ThMuqI34sz6RyVa-542">
          <mxGeometry x="44.999999999999545" y="25" width="30" height="30" as="geometry" />
        </mxCell>
        <mxCell id="bK1I2ThMuqI34sz6RyVa-545" value="" style="edgeStyle=orthogonalEdgeStyle;html=1;verticalAlign=bottom;endArrow=open;endSize=8;strokeColor=#ff0000;rounded=0;" edge="1" parent="bK1I2ThMuqI34sz6RyVa-542" source="bK1I2ThMuqI34sz6RyVa-544">
          <mxGeometry relative="1" as="geometry">
            <mxPoint x="59.999999999999545" y="115" as="targetPoint" />
          </mxGeometry>
        </mxCell>
        <mxCell id="bK1I2ThMuqI34sz6RyVa-552" value="" style="ellipse;html=1;shape=endState;fillColor=#000000;strokeColor=#ff0000;" vertex="1" parent="bK1I2ThMuqI34sz6RyVa-542">
          <mxGeometry x="44.999999999999545" y="230" width="30" height="30" as="geometry" />
        </mxCell>
        <mxCell id="bK1I2ThMuqI34sz6RyVa-553" value="" style="edgeStyle=orthogonalEdgeStyle;rounded=0;orthogonalLoop=1;jettySize=auto;html=1;" edge="1" parent="bK1I2ThMuqI34sz6RyVa-537" source="bK1I2ThMuqI34sz6RyVa-543" target="bK1I2ThMuqI34sz6RyVa-540">
          <mxGeometry relative="1" as="geometry" />
        </mxCell>
        <mxCell id="bK1I2ThMuqI34sz6RyVa-591" style="edgeStyle=orthogonalEdgeStyle;rounded=0;orthogonalLoop=1;jettySize=auto;html=1;exitX=0.5;exitY=1;exitDx=0;exitDy=0;entryX=0.5;entryY=0;entryDx=0;entryDy=0;" edge="1" parent="bK1I2ThMuqI34sz6RyVa-537" source="bK1I2ThMuqI34sz6RyVa-540" target="bK1I2ThMuqI34sz6RyVa-552">
          <mxGeometry relative="1" as="geometry" />
        </mxCell>
        <mxCell id="bK1I2ThMuqI34sz6RyVa-557" value="Logout" style="swimlane;childLayout=stackLayout;resizeParent=1;resizeParentMax=0;startSize=20;html=1;" vertex="1" parent="1">
          <mxGeometry x="-197.49999999999955" y="1170" width="245" height="320" as="geometry" />
        </mxCell>
        <mxCell id="bK1I2ThMuqI34sz6RyVa-558" value="User" style="swimlane;startSize=20;html=1;" vertex="1" parent="bK1I2ThMuqI34sz6RyVa-557">
          <mxGeometry y="20" width="120" height="300" as="geometry" />
        </mxCell>
        <mxCell id="bK1I2ThMuqI34sz6RyVa-559" style="edgeStyle=orthogonalEdgeStyle;rounded=0;orthogonalLoop=1;jettySize=auto;html=1;exitX=0.5;exitY=1;exitDx=0;exitDy=0;entryX=0.5;entryY=0;entryDx=0;entryDy=0;" edge="1" parent="bK1I2ThMuqI34sz6RyVa-558" source="bK1I2ThMuqI34sz6RyVa-560" target="bK1I2ThMuqI34sz6RyVa-561">
          <mxGeometry relative="1" as="geometry" />
        </mxCell>
        <mxCell id="bK1I2ThMuqI34sz6RyVa-560" value="melihat menu logout" style="whiteSpace=wrap;html=1;align=center;" vertex="1" parent="bK1I2ThMuqI34sz6RyVa-558">
          <mxGeometry x="9.999999999999545" y="120" width="100" height="40" as="geometry" />
        </mxCell>
        <mxCell id="bK1I2ThMuqI34sz6RyVa-561" value="melakukan logout" style="whiteSpace=wrap;html=1;align=center;" vertex="1" parent="bK1I2ThMuqI34sz6RyVa-558">
          <mxGeometry x="9.999999999999545" y="180" width="100" height="40" as="geometry" />
        </mxCell>
        <mxCell id="bK1I2ThMuqI34sz6RyVa-562" value="System" style="swimlane;startSize=20;html=1;" vertex="1" parent="bK1I2ThMuqI34sz6RyVa-557">
          <mxGeometry x="120" y="20" width="125" height="300" as="geometry" />
        </mxCell>
        <mxCell id="bK1I2ThMuqI34sz6RyVa-563" value="menampilkan menu logout" style="whiteSpace=wrap;html=1;align=center;" vertex="1" parent="bK1I2ThMuqI34sz6RyVa-562">
          <mxGeometry x="9.999999999999545" y="120" width="100" height="40" as="geometry" />
        </mxCell>
        <mxCell id="bK1I2ThMuqI34sz6RyVa-564" value="" style="ellipse;html=1;shape=startState;fillColor=#000000;strokeColor=#ff0000;" vertex="1" parent="bK1I2ThMuqI34sz6RyVa-562">
          <mxGeometry x="44.999999999999545" y="25" width="30" height="30" as="geometry" />
        </mxCell>
        <mxCell id="bK1I2ThMuqI34sz6RyVa-565" value="" style="edgeStyle=orthogonalEdgeStyle;html=1;verticalAlign=bottom;endArrow=open;endSize=8;strokeColor=#ff0000;rounded=0;" edge="1" parent="bK1I2ThMuqI34sz6RyVa-562" source="bK1I2ThMuqI34sz6RyVa-564">
          <mxGeometry relative="1" as="geometry">
            <mxPoint x="59.999999999999545" y="115" as="targetPoint" />
          </mxGeometry>
        </mxCell>
        <mxCell id="bK1I2ThMuqI34sz6RyVa-569" style="edgeStyle=orthogonalEdgeStyle;rounded=0;orthogonalLoop=1;jettySize=auto;html=1;exitX=0.5;exitY=1;exitDx=0;exitDy=0;entryX=0.5;entryY=0;entryDx=0;entryDy=0;" edge="1" parent="bK1I2ThMuqI34sz6RyVa-562" source="bK1I2ThMuqI34sz6RyVa-570" target="bK1I2ThMuqI34sz6RyVa-572">
          <mxGeometry relative="1" as="geometry" />
        </mxCell>
        <mxCell id="bK1I2ThMuqI34sz6RyVa-570" value="logout berhasil" style="whiteSpace=wrap;html=1;align=center;" vertex="1" parent="bK1I2ThMuqI34sz6RyVa-562">
          <mxGeometry x="9.999999999999545" y="180" width="100" height="40" as="geometry" />
        </mxCell>
        <mxCell id="bK1I2ThMuqI34sz6RyVa-572" value="" style="ellipse;html=1;shape=endState;fillColor=#000000;strokeColor=#ff0000;" vertex="1" parent="bK1I2ThMuqI34sz6RyVa-562">
          <mxGeometry x="44.999999999999545" y="250" width="30" height="30" as="geometry" />
        </mxCell>
        <mxCell id="bK1I2ThMuqI34sz6RyVa-573" value="" style="edgeStyle=orthogonalEdgeStyle;rounded=0;orthogonalLoop=1;jettySize=auto;html=1;" edge="1" parent="bK1I2ThMuqI34sz6RyVa-557" source="bK1I2ThMuqI34sz6RyVa-563" target="bK1I2ThMuqI34sz6RyVa-560">
          <mxGeometry relative="1" as="geometry" />
        </mxCell>
        <mxCell id="bK1I2ThMuqI34sz6RyVa-576" style="edgeStyle=orthogonalEdgeStyle;rounded=0;orthogonalLoop=1;jettySize=auto;html=1;exitX=1;exitY=0.5;exitDx=0;exitDy=0;entryX=0;entryY=0.5;entryDx=0;entryDy=0;" edge="1" parent="bK1I2ThMuqI34sz6RyVa-557" source="bK1I2ThMuqI34sz6RyVa-561" target="bK1I2ThMuqI34sz6RyVa-570">
          <mxGeometry relative="1" as="geometry" />
        </mxCell>
        <mxCell id="bK1I2ThMuqI34sz6RyVa-577" value="Logout" style="swimlane;childLayout=stackLayout;resizeParent=1;resizeParentMax=0;startSize=20;html=1;" vertex="1" parent="1">
          <mxGeometry x="1060.0000000000005" y="1170" width="245" height="320" as="geometry" />
        </mxCell>
        <mxCell id="bK1I2ThMuqI34sz6RyVa-578" value="User" style="swimlane;startSize=20;html=1;" vertex="1" parent="bK1I2ThMuqI34sz6RyVa-577">
          <mxGeometry y="20" width="120" height="300" as="geometry" />
        </mxCell>
        <mxCell id="bK1I2ThMuqI34sz6RyVa-579" style="edgeStyle=orthogonalEdgeStyle;rounded=0;orthogonalLoop=1;jettySize=auto;html=1;exitX=0.5;exitY=1;exitDx=0;exitDy=0;entryX=0.5;entryY=0;entryDx=0;entryDy=0;" edge="1" parent="bK1I2ThMuqI34sz6RyVa-578" source="bK1I2ThMuqI34sz6RyVa-580" target="bK1I2ThMuqI34sz6RyVa-581">
          <mxGeometry relative="1" as="geometry" />
        </mxCell>
        <mxCell id="bK1I2ThMuqI34sz6RyVa-580" value="melihat menu logout" style="whiteSpace=wrap;html=1;align=center;" vertex="1" parent="bK1I2ThMuqI34sz6RyVa-578">
          <mxGeometry x="9.999999999999545" y="120" width="100" height="40" as="geometry" />
        </mxCell>
        <mxCell id="bK1I2ThMuqI34sz6RyVa-581" value="melakukan logout" style="whiteSpace=wrap;html=1;align=center;" vertex="1" parent="bK1I2ThMuqI34sz6RyVa-578">
          <mxGeometry x="9.999999999999545" y="180" width="100" height="40" as="geometry" />
        </mxCell>
        <mxCell id="bK1I2ThMuqI34sz6RyVa-582" value="System" style="swimlane;startSize=20;html=1;" vertex="1" parent="bK1I2ThMuqI34sz6RyVa-577">
          <mxGeometry x="120" y="20" width="125" height="300" as="geometry" />
        </mxCell>
        <mxCell id="bK1I2ThMuqI34sz6RyVa-583" value="menampilkan menu logout" style="whiteSpace=wrap;html=1;align=center;" vertex="1" parent="bK1I2ThMuqI34sz6RyVa-582">
          <mxGeometry x="9.999999999999545" y="120" width="100" height="40" as="geometry" />
        </mxCell>
        <mxCell id="bK1I2ThMuqI34sz6RyVa-584" value="" style="ellipse;html=1;shape=startState;fillColor=#000000;strokeColor=#ff0000;" vertex="1" parent="bK1I2ThMuqI34sz6RyVa-582">
          <mxGeometry x="44.999999999999545" y="25" width="30" height="30" as="geometry" />
        </mxCell>
        <mxCell id="bK1I2ThMuqI34sz6RyVa-585" value="" style="edgeStyle=orthogonalEdgeStyle;html=1;verticalAlign=bottom;endArrow=open;endSize=8;strokeColor=#ff0000;rounded=0;" edge="1" parent="bK1I2ThMuqI34sz6RyVa-582" source="bK1I2ThMuqI34sz6RyVa-584">
          <mxGeometry relative="1" as="geometry">
            <mxPoint x="59.999999999999545" y="115" as="targetPoint" />
          </mxGeometry>
        </mxCell>
        <mxCell id="bK1I2ThMuqI34sz6RyVa-586" style="edgeStyle=orthogonalEdgeStyle;rounded=0;orthogonalLoop=1;jettySize=auto;html=1;exitX=0.5;exitY=1;exitDx=0;exitDy=0;entryX=0.5;entryY=0;entryDx=0;entryDy=0;" edge="1" parent="bK1I2ThMuqI34sz6RyVa-582" source="bK1I2ThMuqI34sz6RyVa-587" target="bK1I2ThMuqI34sz6RyVa-588">
          <mxGeometry relative="1" as="geometry" />
        </mxCell>
        <mxCell id="bK1I2ThMuqI34sz6RyVa-587" value="logout berhasil" style="whiteSpace=wrap;html=1;align=center;" vertex="1" parent="bK1I2ThMuqI34sz6RyVa-582">
          <mxGeometry x="9.999999999999545" y="180" width="100" height="40" as="geometry" />
        </mxCell>
        <mxCell id="bK1I2ThMuqI34sz6RyVa-588" value="" style="ellipse;html=1;shape=endState;fillColor=#000000;strokeColor=#ff0000;" vertex="1" parent="bK1I2ThMuqI34sz6RyVa-582">
          <mxGeometry x="44.999999999999545" y="250" width="30" height="30" as="geometry" />
        </mxCell>
        <mxCell id="bK1I2ThMuqI34sz6RyVa-589" value="" style="edgeStyle=orthogonalEdgeStyle;rounded=0;orthogonalLoop=1;jettySize=auto;html=1;" edge="1" parent="bK1I2ThMuqI34sz6RyVa-577" source="bK1I2ThMuqI34sz6RyVa-583" target="bK1I2ThMuqI34sz6RyVa-580">
          <mxGeometry relative="1" as="geometry" />
        </mxCell>
        <mxCell id="bK1I2ThMuqI34sz6RyVa-590" style="edgeStyle=orthogonalEdgeStyle;rounded=0;orthogonalLoop=1;jettySize=auto;html=1;exitX=1;exitY=0.5;exitDx=0;exitDy=0;entryX=0;entryY=0.5;entryDx=0;entryDy=0;" edge="1" parent="bK1I2ThMuqI34sz6RyVa-577" source="bK1I2ThMuqI34sz6RyVa-581" target="bK1I2ThMuqI34sz6RyVa-587">
          <mxGeometry relative="1" as="geometry" />
        </mxCell>
        <mxCell id="bK1I2ThMuqI34sz6RyVa-592" value="&lt;h1&gt;&lt;font style=&quot;font-size: 40px;&quot; face=&quot;Garamond&quot;&gt;FLOWCHART USER&lt;/font&gt;&lt;/h1&gt;" style="text;html=1;align=center;verticalAlign=middle;resizable=0;points=[];autosize=1;strokeColor=none;fillColor=none;" vertex="1" parent="1">
          <mxGeometry x="840" y="110" width="400" height="90" as="geometry" />
        </mxCell>
        <mxCell id="bK1I2ThMuqI34sz6RyVa-595" value="" style="edgeStyle=orthogonalEdgeStyle;rounded=0;orthogonalLoop=1;jettySize=auto;html=1;" edge="1" parent="1" source="bK1I2ThMuqI34sz6RyVa-593" target="bK1I2ThMuqI34sz6RyVa-594">
          <mxGeometry relative="1" as="geometry" />
        </mxCell>
        <mxCell id="bK1I2ThMuqI34sz6RyVa-593" value="mulai" style="strokeWidth=2;html=1;shape=mxgraph.flowchart.start_1;whiteSpace=wrap;" vertex="1" parent="1">
          <mxGeometry x="990" y="200" width="100" height="60" as="geometry" />
        </mxCell>
        <mxCell id="bK1I2ThMuqI34sz6RyVa-597" value="" style="edgeStyle=orthogonalEdgeStyle;rounded=0;orthogonalLoop=1;jettySize=auto;html=1;" edge="1" parent="1" source="bK1I2ThMuqI34sz6RyVa-594" target="bK1I2ThMuqI34sz6RyVa-596">
          <mxGeometry relative="1" as="geometry" />
        </mxCell>
        <mxCell id="bK1I2ThMuqI34sz6RyVa-594" value="halaman" style="whiteSpace=wrap;html=1;strokeWidth=2;" vertex="1" parent="1">
          <mxGeometry x="980" y="290" width="120" height="60" as="geometry" />
        </mxCell>
        <mxCell id="bK1I2ThMuqI34sz6RyVa-599" value="" style="edgeStyle=orthogonalEdgeStyle;rounded=0;orthogonalLoop=1;jettySize=auto;html=1;" edge="1" parent="1" source="bK1I2ThMuqI34sz6RyVa-596" target="bK1I2ThMuqI34sz6RyVa-598">
          <mxGeometry relative="1" as="geometry" />
        </mxCell>
        <mxCell id="bK1I2ThMuqI34sz6RyVa-596" value="input username &amp;amp; password" style="shape=parallelogram;perimeter=parallelogramPerimeter;whiteSpace=wrap;html=1;fixedSize=1;strokeWidth=2;" vertex="1" parent="1">
          <mxGeometry x="980" y="380" width="120" height="60" as="geometry" />
        </mxCell>
        <mxCell id="bK1I2ThMuqI34sz6RyVa-607" style="edgeStyle=orthogonalEdgeStyle;rounded=0;orthogonalLoop=1;jettySize=auto;html=1;exitX=1;exitY=0.5;exitDx=0;exitDy=0;entryX=1;entryY=0.5;entryDx=0;entryDy=0;" edge="1" parent="1" source="bK1I2ThMuqI34sz6RyVa-598" target="bK1I2ThMuqI34sz6RyVa-596">
          <mxGeometry relative="1" as="geometry">
            <mxPoint x="1130" y="410" as="targetPoint" />
            <Array as="points">
              <mxPoint x="1140" y="500" />
              <mxPoint x="1140" y="410" />
            </Array>
          </mxGeometry>
        </mxCell>
        <mxCell id="bK1I2ThMuqI34sz6RyVa-704" style="edgeStyle=orthogonalEdgeStyle;rounded=0;orthogonalLoop=1;jettySize=auto;html=1;exitX=0.5;exitY=1;exitDx=0;exitDy=0;entryX=0.5;entryY=0;entryDx=0;entryDy=0;" edge="1" parent="1" source="bK1I2ThMuqI34sz6RyVa-598" target="bK1I2ThMuqI34sz6RyVa-702">
          <mxGeometry relative="1" as="geometry" />
        </mxCell>
        <mxCell id="bK1I2ThMuqI34sz6RyVa-598" value="valid?" style="rhombus;whiteSpace=wrap;html=1;strokeWidth=2;" vertex="1" parent="1">
          <mxGeometry x="1000" y="460" width="80" height="80" as="geometry" />
        </mxCell>
        <mxCell id="bK1I2ThMuqI34sz6RyVa-601" value="tidak" style="text;html=1;align=center;verticalAlign=middle;resizable=0;points=[];autosize=1;strokeColor=none;fillColor=none;" vertex="1" parent="1">
          <mxGeometry x="1060" y="475" width="50" height="30" as="geometry" />
        </mxCell>
        <mxCell id="bK1I2ThMuqI34sz6RyVa-602" value="ya" style="text;html=1;align=center;verticalAlign=middle;resizable=0;points=[];autosize=1;strokeColor=none;fillColor=none;" vertex="1" parent="1">
          <mxGeometry x="990" y="510" width="40" height="30" as="geometry" />
        </mxCell>
        <mxCell id="bK1I2ThMuqI34sz6RyVa-703" style="edgeStyle=orthogonalEdgeStyle;rounded=0;orthogonalLoop=1;jettySize=auto;html=1;exitX=0.5;exitY=1;exitDx=0;exitDy=0;entryX=0.5;entryY=0;entryDx=0;entryDy=0;" edge="1" parent="1" source="bK1I2ThMuqI34sz6RyVa-608" target="bK1I2ThMuqI34sz6RyVa-628">
          <mxGeometry relative="1" as="geometry" />
        </mxCell>
        <mxCell id="bK1I2ThMuqI34sz6RyVa-608" value="&lt;div&gt;1.Peminjaman &amp;amp; Pengembalian&lt;/div&gt;" style="shape=process;whiteSpace=wrap;html=1;backgroundOutline=1;strokeWidth=2;" vertex="1" parent="1">
          <mxGeometry x="980" y="655" width="120" height="60" as="geometry" />
        </mxCell>
        <mxCell id="bK1I2ThMuqI34sz6RyVa-623" value="" style="edgeStyle=orthogonalEdgeStyle;rounded=0;orthogonalLoop=1;jettySize=auto;html=1;" edge="1" parent="1" target="bK1I2ThMuqI34sz6RyVa-622">
          <mxGeometry relative="1" as="geometry">
            <mxPoint x="1100" y="800" as="sourcePoint" />
          </mxGeometry>
        </mxCell>
        <mxCell id="bK1I2ThMuqI34sz6RyVa-625" value="" style="edgeStyle=orthogonalEdgeStyle;rounded=0;orthogonalLoop=1;jettySize=auto;html=1;" edge="1" parent="1" source="bK1I2ThMuqI34sz6RyVa-622" target="bK1I2ThMuqI34sz6RyVa-624">
          <mxGeometry relative="1" as="geometry" />
        </mxCell>
        <mxCell id="bK1I2ThMuqI34sz6RyVa-622" value="input barang yg ingin dipinjam / dikembalikan" style="shape=parallelogram;perimeter=parallelogramPerimeter;whiteSpace=wrap;html=1;fixedSize=1;strokeWidth=2;" vertex="1" parent="1">
          <mxGeometry x="1125" y="770" width="150" height="60" as="geometry" />
        </mxCell>
        <mxCell id="bK1I2ThMuqI34sz6RyVa-627" style="edgeStyle=orthogonalEdgeStyle;rounded=0;orthogonalLoop=1;jettySize=auto;html=1;exitX=1;exitY=0.5;exitDx=0;exitDy=0;entryX=1;entryY=0.5;entryDx=0;entryDy=0;" edge="1" parent="1" source="bK1I2ThMuqI34sz6RyVa-624" target="bK1I2ThMuqI34sz6RyVa-608">
          <mxGeometry relative="1" as="geometry" />
        </mxCell>
        <mxCell id="bK1I2ThMuqI34sz6RyVa-624" value="permintaan peminjaman / pengembalian terkirim" style="whiteSpace=wrap;html=1;strokeWidth=2;" vertex="1" parent="1">
          <mxGeometry x="1290" y="770" width="120" height="60" as="geometry" />
        </mxCell>
        <mxCell id="bK1I2ThMuqI34sz6RyVa-629" value="" style="edgeStyle=orthogonalEdgeStyle;rounded=0;orthogonalLoop=1;jettySize=auto;html=1;" edge="1" parent="1" source="bK1I2ThMuqI34sz6RyVa-628" target="bK1I2ThMuqI34sz6RyVa-622">
          <mxGeometry relative="1" as="geometry" />
        </mxCell>
        <mxCell id="bK1I2ThMuqI34sz6RyVa-635" value="" style="edgeStyle=orthogonalEdgeStyle;rounded=0;orthogonalLoop=1;jettySize=auto;html=1;" edge="1" parent="1" source="bK1I2ThMuqI34sz6RyVa-628" target="bK1I2ThMuqI34sz6RyVa-634">
          <mxGeometry relative="1" as="geometry" />
        </mxCell>
        <mxCell id="bK1I2ThMuqI34sz6RyVa-628" value="menu peminjaman &amp;amp; pengembalian?" style="rhombus;whiteSpace=wrap;html=1;strokeWidth=2;" vertex="1" parent="1">
          <mxGeometry x="980" y="750" width="120" height="100" as="geometry" />
        </mxCell>
        <mxCell id="bK1I2ThMuqI34sz6RyVa-630" value="ya" style="text;html=1;align=center;verticalAlign=middle;resizable=0;points=[];autosize=1;strokeColor=none;fillColor=none;" vertex="1" parent="1">
          <mxGeometry x="1090" y="758" width="40" height="30" as="geometry" />
        </mxCell>
        <mxCell id="bK1I2ThMuqI34sz6RyVa-631" value="tidak" style="text;html=1;align=center;verticalAlign=middle;resizable=0;points=[];autosize=1;strokeColor=none;fillColor=none;" vertex="1" parent="1">
          <mxGeometry x="980" y="830" width="50" height="30" as="geometry" />
        </mxCell>
        <mxCell id="bK1I2ThMuqI34sz6RyVa-637" value="" style="edgeStyle=orthogonalEdgeStyle;rounded=0;orthogonalLoop=1;jettySize=auto;html=1;" edge="1" parent="1" source="bK1I2ThMuqI34sz6RyVa-634">
          <mxGeometry relative="1" as="geometry">
            <mxPoint x="1040" y="950" as="targetPoint" />
          </mxGeometry>
        </mxCell>
        <mxCell id="bK1I2ThMuqI34sz6RyVa-634" value="logout" style="whiteSpace=wrap;html=1;strokeWidth=2;" vertex="1" parent="1">
          <mxGeometry x="980" y="870" width="120" height="60" as="geometry" />
        </mxCell>
        <mxCell id="bK1I2ThMuqI34sz6RyVa-638" value="selesai" style="strokeWidth=2;html=1;shape=mxgraph.flowchart.start_1;whiteSpace=wrap;" vertex="1" parent="1">
          <mxGeometry x="990" y="950" width="100" height="60" as="geometry" />
        </mxCell>
        <mxCell id="bK1I2ThMuqI34sz6RyVa-639" value="&lt;h1&gt;&lt;font style=&quot;font-size: 40px;&quot; face=&quot;Garamond&quot;&gt;FLOWCHART ADMIN&lt;/font&gt;&lt;/h1&gt;" style="text;html=1;align=center;verticalAlign=middle;resizable=0;points=[];autosize=1;strokeColor=none;fillColor=none;" vertex="1" parent="1">
          <mxGeometry x="1720" y="110" width="440" height="90" as="geometry" />
        </mxCell>
        <mxCell id="bK1I2ThMuqI34sz6RyVa-642" value="" style="edgeStyle=orthogonalEdgeStyle;rounded=0;orthogonalLoop=1;jettySize=auto;html=1;" edge="1" parent="1" source="bK1I2ThMuqI34sz6RyVa-640" target="bK1I2ThMuqI34sz6RyVa-641">
          <mxGeometry relative="1" as="geometry" />
        </mxCell>
        <mxCell id="bK1I2ThMuqI34sz6RyVa-640" value="mulai" style="strokeWidth=2;html=1;shape=mxgraph.flowchart.start_1;whiteSpace=wrap;" vertex="1" parent="1">
          <mxGeometry x="1740" y="200" width="100" height="60" as="geometry" />
        </mxCell>
        <mxCell id="bK1I2ThMuqI34sz6RyVa-654" style="edgeStyle=orthogonalEdgeStyle;rounded=0;orthogonalLoop=1;jettySize=auto;html=1;exitX=0.5;exitY=1;exitDx=0;exitDy=0;entryX=0.5;entryY=0;entryDx=0;entryDy=0;" edge="1" parent="1" source="bK1I2ThMuqI34sz6RyVa-641" target="bK1I2ThMuqI34sz6RyVa-646">
          <mxGeometry relative="1" as="geometry" />
        </mxCell>
        <mxCell id="bK1I2ThMuqI34sz6RyVa-641" value="halaman login" style="whiteSpace=wrap;html=1;strokeWidth=2;" vertex="1" parent="1">
          <mxGeometry x="1730" y="290" width="120" height="60" as="geometry" />
        </mxCell>
        <mxCell id="bK1I2ThMuqI34sz6RyVa-645" value="" style="edgeStyle=orthogonalEdgeStyle;rounded=0;orthogonalLoop=1;jettySize=auto;html=1;" edge="1" parent="1" source="bK1I2ThMuqI34sz6RyVa-646" target="bK1I2ThMuqI34sz6RyVa-648">
          <mxGeometry relative="1" as="geometry" />
        </mxCell>
        <mxCell id="bK1I2ThMuqI34sz6RyVa-646" value="input username &amp;amp; password" style="shape=parallelogram;perimeter=parallelogramPerimeter;whiteSpace=wrap;html=1;fixedSize=1;strokeWidth=2;" vertex="1" parent="1">
          <mxGeometry x="1730" y="390" width="120" height="60" as="geometry" />
        </mxCell>
        <mxCell id="bK1I2ThMuqI34sz6RyVa-647" style="edgeStyle=orthogonalEdgeStyle;rounded=0;orthogonalLoop=1;jettySize=auto;html=1;exitX=1;exitY=0.5;exitDx=0;exitDy=0;entryX=1;entryY=0.5;entryDx=0;entryDy=0;" edge="1" parent="1" source="bK1I2ThMuqI34sz6RyVa-648" target="bK1I2ThMuqI34sz6RyVa-646">
          <mxGeometry relative="1" as="geometry">
            <mxPoint x="1875" y="420" as="targetPoint" />
            <Array as="points">
              <mxPoint x="1885" y="520" />
              <mxPoint x="1885" y="420" />
            </Array>
          </mxGeometry>
        </mxCell>
        <mxCell id="bK1I2ThMuqI34sz6RyVa-700" style="edgeStyle=orthogonalEdgeStyle;rounded=0;orthogonalLoop=1;jettySize=auto;html=1;exitX=0.5;exitY=1;exitDx=0;exitDy=0;entryX=0.5;entryY=0;entryDx=0;entryDy=0;" edge="1" parent="1" source="bK1I2ThMuqI34sz6RyVa-648" target="bK1I2ThMuqI34sz6RyVa-699">
          <mxGeometry relative="1" as="geometry" />
        </mxCell>
        <mxCell id="bK1I2ThMuqI34sz6RyVa-648" value="valid?" style="rhombus;whiteSpace=wrap;html=1;strokeWidth=2;" vertex="1" parent="1">
          <mxGeometry x="1750" y="480" width="80" height="80" as="geometry" />
        </mxCell>
        <mxCell id="bK1I2ThMuqI34sz6RyVa-649" value="tidak" style="text;html=1;align=center;verticalAlign=middle;resizable=0;points=[];autosize=1;strokeColor=none;fillColor=none;" vertex="1" parent="1">
          <mxGeometry x="1805" y="485" width="50" height="30" as="geometry" />
        </mxCell>
        <mxCell id="bK1I2ThMuqI34sz6RyVa-650" value="ya" style="text;html=1;align=center;verticalAlign=middle;resizable=0;points=[];autosize=1;strokeColor=none;fillColor=none;" vertex="1" parent="1">
          <mxGeometry x="1735" y="530" width="40" height="30" as="geometry" />
        </mxCell>
        <mxCell id="bK1I2ThMuqI34sz6RyVa-660" value="" style="edgeStyle=orthogonalEdgeStyle;rounded=0;orthogonalLoop=1;jettySize=auto;html=1;" edge="1" parent="1" source="bK1I2ThMuqI34sz6RyVa-657" target="bK1I2ThMuqI34sz6RyVa-659">
          <mxGeometry relative="1" as="geometry" />
        </mxCell>
        <mxCell id="bK1I2ThMuqI34sz6RyVa-657" value="&lt;div&gt;1.CRUD barang&lt;/div&gt;&lt;div&gt;2. Approval Peminjaman&lt;/div&gt;&lt;div&gt;3. Approval Pengembalian&lt;/div&gt;&lt;div&gt;4. Report Peminjaman &amp;amp; Pengembalian&lt;/div&gt;" style="shape=process;whiteSpace=wrap;html=1;backgroundOutline=1;strokeWidth=2;" vertex="1" parent="1">
          <mxGeometry x="1730" y="670" width="120" height="140" as="geometry" />
        </mxCell>
        <mxCell id="bK1I2ThMuqI34sz6RyVa-659" value="A" style="ellipse;whiteSpace=wrap;html=1;strokeWidth=2;" vertex="1" parent="1">
          <mxGeometry x="1770" y="850" width="40" height="40" as="geometry" />
        </mxCell>
        <mxCell id="bK1I2ThMuqI34sz6RyVa-663" value="" style="edgeStyle=orthogonalEdgeStyle;rounded=0;orthogonalLoop=1;jettySize=auto;html=1;entryX=0.5;entryY=0;entryDx=0;entryDy=0;" edge="1" parent="1" source="bK1I2ThMuqI34sz6RyVa-661" target="bK1I2ThMuqI34sz6RyVa-664">
          <mxGeometry relative="1" as="geometry">
            <mxPoint x="2077.5" y="220" as="targetPoint" />
            <Array as="points" />
          </mxGeometry>
        </mxCell>
        <mxCell id="bK1I2ThMuqI34sz6RyVa-661" value="A" style="ellipse;whiteSpace=wrap;html=1;strokeWidth=2;" vertex="1" parent="1">
          <mxGeometry x="2057.5" y="220" width="40" height="40" as="geometry" />
        </mxCell>
        <mxCell id="bK1I2ThMuqI34sz6RyVa-667" value="" style="edgeStyle=orthogonalEdgeStyle;rounded=0;orthogonalLoop=1;jettySize=auto;html=1;" edge="1" parent="1" source="bK1I2ThMuqI34sz6RyVa-664" target="bK1I2ThMuqI34sz6RyVa-666">
          <mxGeometry relative="1" as="geometry" />
        </mxCell>
        <mxCell id="bK1I2ThMuqI34sz6RyVa-707" style="edgeStyle=orthogonalEdgeStyle;rounded=0;orthogonalLoop=1;jettySize=auto;html=1;exitX=1;exitY=0.5;exitDx=0;exitDy=0;entryX=0;entryY=0.5;entryDx=0;entryDy=0;" edge="1" parent="1" source="bK1I2ThMuqI34sz6RyVa-664" target="bK1I2ThMuqI34sz6RyVa-706">
          <mxGeometry relative="1" as="geometry" />
        </mxCell>
        <mxCell id="bK1I2ThMuqI34sz6RyVa-664" value="CRUD barang?" style="rhombus;whiteSpace=wrap;html=1;strokeWidth=2;" vertex="1" parent="1">
          <mxGeometry x="2037.5" y="300" width="80" height="80" as="geometry" />
        </mxCell>
        <mxCell id="bK1I2ThMuqI34sz6RyVa-669" value="" style="edgeStyle=orthogonalEdgeStyle;rounded=0;orthogonalLoop=1;jettySize=auto;html=1;" edge="1" parent="1" source="bK1I2ThMuqI34sz6RyVa-666" target="bK1I2ThMuqI34sz6RyVa-668">
          <mxGeometry relative="1" as="geometry" />
        </mxCell>
        <mxCell id="bK1I2ThMuqI34sz6RyVa-677" value="" style="edgeStyle=orthogonalEdgeStyle;rounded=0;orthogonalLoop=1;jettySize=auto;html=1;" edge="1" parent="1" source="bK1I2ThMuqI34sz6RyVa-666" target="bK1I2ThMuqI34sz6RyVa-676">
          <mxGeometry relative="1" as="geometry" />
        </mxCell>
        <mxCell id="bK1I2ThMuqI34sz6RyVa-666" value="Approval Peminjaman?" style="rhombus;whiteSpace=wrap;html=1;strokeWidth=2;" vertex="1" parent="1">
          <mxGeometry x="2032.5" y="400" width="90" height="80" as="geometry" />
        </mxCell>
        <mxCell id="bK1I2ThMuqI34sz6RyVa-671" value="" style="edgeStyle=orthogonalEdgeStyle;rounded=0;orthogonalLoop=1;jettySize=auto;html=1;" edge="1" parent="1" source="bK1I2ThMuqI34sz6RyVa-668" target="bK1I2ThMuqI34sz6RyVa-670">
          <mxGeometry relative="1" as="geometry" />
        </mxCell>
        <mxCell id="bK1I2ThMuqI34sz6RyVa-679" style="edgeStyle=orthogonalEdgeStyle;rounded=0;orthogonalLoop=1;jettySize=auto;html=1;exitX=1;exitY=0.5;exitDx=0;exitDy=0;entryX=0;entryY=0.5;entryDx=0;entryDy=0;" edge="1" parent="1" source="bK1I2ThMuqI34sz6RyVa-668" target="bK1I2ThMuqI34sz6RyVa-678">
          <mxGeometry relative="1" as="geometry" />
        </mxCell>
        <mxCell id="bK1I2ThMuqI34sz6RyVa-668" value="Approval Pengembalian?" style="rhombus;whiteSpace=wrap;html=1;strokeWidth=2;" vertex="1" parent="1">
          <mxGeometry x="2032.5" y="500" width="90" height="80" as="geometry" />
        </mxCell>
        <mxCell id="bK1I2ThMuqI34sz6RyVa-687" style="edgeStyle=orthogonalEdgeStyle;rounded=0;orthogonalLoop=1;jettySize=auto;html=1;exitX=1;exitY=0.5;exitDx=0;exitDy=0;entryX=0;entryY=0.5;entryDx=0;entryDy=0;" edge="1" parent="1" source="bK1I2ThMuqI34sz6RyVa-670" target="bK1I2ThMuqI34sz6RyVa-686">
          <mxGeometry relative="1" as="geometry" />
        </mxCell>
        <mxCell id="bK1I2ThMuqI34sz6RyVa-695" value="" style="edgeStyle=orthogonalEdgeStyle;rounded=0;orthogonalLoop=1;jettySize=auto;html=1;" edge="1" parent="1" source="bK1I2ThMuqI34sz6RyVa-670" target="bK1I2ThMuqI34sz6RyVa-694">
          <mxGeometry relative="1" as="geometry" />
        </mxCell>
        <mxCell id="bK1I2ThMuqI34sz6RyVa-670" value="Report Peminjaman &amp;amp; Pengembalian?" style="rhombus;whiteSpace=wrap;html=1;strokeWidth=2;" vertex="1" parent="1">
          <mxGeometry x="2010" y="600" width="135" height="100" as="geometry" />
        </mxCell>
        <mxCell id="bK1I2ThMuqI34sz6RyVa-716" style="edgeStyle=orthogonalEdgeStyle;rounded=0;orthogonalLoop=1;jettySize=auto;html=1;exitX=1;exitY=0.5;exitDx=0;exitDy=0;entryX=0;entryY=0.5;entryDx=0;entryDy=0;" edge="1" parent="1" source="bK1I2ThMuqI34sz6RyVa-674" target="bK1I2ThMuqI34sz6RyVa-710">
          <mxGeometry relative="1" as="geometry" />
        </mxCell>
        <mxCell id="bK1I2ThMuqI34sz6RyVa-674" value="CRUD barang" style="shape=parallelogram;perimeter=parallelogramPerimeter;whiteSpace=wrap;html=1;fixedSize=1;strokeWidth=2;" vertex="1" parent="1">
          <mxGeometry x="2297.5" y="310" width="120" height="60" as="geometry" />
        </mxCell>
        <mxCell id="bK1I2ThMuqI34sz6RyVa-681" value="" style="edgeStyle=orthogonalEdgeStyle;rounded=0;orthogonalLoop=1;jettySize=auto;html=1;" edge="1" parent="1" source="bK1I2ThMuqI34sz6RyVa-676" target="bK1I2ThMuqI34sz6RyVa-680">
          <mxGeometry relative="1" as="geometry" />
        </mxCell>
        <mxCell id="bK1I2ThMuqI34sz6RyVa-676" value="Halaman Permintaan Peminjaman" style="whiteSpace=wrap;html=1;strokeWidth=2;" vertex="1" parent="1">
          <mxGeometry x="2145" y="410" width="120" height="60" as="geometry" />
        </mxCell>
        <mxCell id="bK1I2ThMuqI34sz6RyVa-685" style="edgeStyle=orthogonalEdgeStyle;rounded=0;orthogonalLoop=1;jettySize=auto;html=1;exitX=1;exitY=0.5;exitDx=0;exitDy=0;entryX=0;entryY=0.5;entryDx=0;entryDy=0;" edge="1" parent="1" source="bK1I2ThMuqI34sz6RyVa-678" target="bK1I2ThMuqI34sz6RyVa-682">
          <mxGeometry relative="1" as="geometry" />
        </mxCell>
        <mxCell id="bK1I2ThMuqI34sz6RyVa-678" value="Halaman Permintaan Pengembalian" style="whiteSpace=wrap;html=1;strokeWidth=2;" vertex="1" parent="1">
          <mxGeometry x="2145" y="510" width="120" height="60" as="geometry" />
        </mxCell>
        <mxCell id="bK1I2ThMuqI34sz6RyVa-715" style="edgeStyle=orthogonalEdgeStyle;rounded=0;orthogonalLoop=1;jettySize=auto;html=1;exitX=1;exitY=0.5;exitDx=0;exitDy=0;entryX=0;entryY=0.5;entryDx=0;entryDy=0;" edge="1" parent="1" source="bK1I2ThMuqI34sz6RyVa-680" target="bK1I2ThMuqI34sz6RyVa-711">
          <mxGeometry relative="1" as="geometry" />
        </mxCell>
        <mxCell id="bK1I2ThMuqI34sz6RyVa-680" value="Approve Peminjaman berhasil" style="whiteSpace=wrap;html=1;strokeWidth=2;" vertex="1" parent="1">
          <mxGeometry x="2297.5" y="410" width="120" height="60" as="geometry" />
        </mxCell>
        <mxCell id="bK1I2ThMuqI34sz6RyVa-714" style="edgeStyle=orthogonalEdgeStyle;rounded=0;orthogonalLoop=1;jettySize=auto;html=1;exitX=1;exitY=0.5;exitDx=0;exitDy=0;entryX=0;entryY=0.5;entryDx=0;entryDy=0;" edge="1" parent="1" source="bK1I2ThMuqI34sz6RyVa-682" target="bK1I2ThMuqI34sz6RyVa-709">
          <mxGeometry relative="1" as="geometry" />
        </mxCell>
        <mxCell id="bK1I2ThMuqI34sz6RyVa-682" value="Approve Pengembalian berhasil" style="whiteSpace=wrap;html=1;strokeWidth=2;" vertex="1" parent="1">
          <mxGeometry x="2297.5" y="510" width="120" height="60" as="geometry" />
        </mxCell>
        <mxCell id="bK1I2ThMuqI34sz6RyVa-713" style="edgeStyle=orthogonalEdgeStyle;rounded=0;orthogonalLoop=1;jettySize=auto;html=1;exitX=1;exitY=0.5;exitDx=0;exitDy=0;entryX=0;entryY=0.5;entryDx=0;entryDy=0;" edge="1" parent="1" source="bK1I2ThMuqI34sz6RyVa-686" target="bK1I2ThMuqI34sz6RyVa-712">
          <mxGeometry relative="1" as="geometry" />
        </mxCell>
        <mxCell id="bK1I2ThMuqI34sz6RyVa-686" value="Tampilan Report Peminjaman &amp;amp; Pengembalian" style="whiteSpace=wrap;html=1;strokeWidth=2;" vertex="1" parent="1">
          <mxGeometry x="2167.5" y="620" width="120" height="60" as="geometry" />
        </mxCell>
        <mxCell id="bK1I2ThMuqI34sz6RyVa-694" value="Logout" style="whiteSpace=wrap;html=1;strokeWidth=2;" vertex="1" parent="1">
          <mxGeometry x="2017.5" y="720" width="120" height="60" as="geometry" />
        </mxCell>
        <mxCell id="bK1I2ThMuqI34sz6RyVa-696" value="Selesai" style="strokeWidth=2;html=1;shape=mxgraph.flowchart.start_1;whiteSpace=wrap;" vertex="1" parent="1">
          <mxGeometry x="2027.5" y="800" width="100" height="60" as="geometry" />
        </mxCell>
        <mxCell id="bK1I2ThMuqI34sz6RyVa-697" style="edgeStyle=orthogonalEdgeStyle;rounded=0;orthogonalLoop=1;jettySize=auto;html=1;exitX=0.5;exitY=1;exitDx=0;exitDy=0;entryX=0.5;entryY=0;entryDx=0;entryDy=0;entryPerimeter=0;" edge="1" parent="1" source="bK1I2ThMuqI34sz6RyVa-694" target="bK1I2ThMuqI34sz6RyVa-696">
          <mxGeometry relative="1" as="geometry" />
        </mxCell>
        <mxCell id="bK1I2ThMuqI34sz6RyVa-699" value="Dashboard Admin" style="whiteSpace=wrap;html=1;strokeWidth=2;" vertex="1" parent="1">
          <mxGeometry x="1730" y="580" width="120" height="60" as="geometry" />
        </mxCell>
        <mxCell id="bK1I2ThMuqI34sz6RyVa-701" style="edgeStyle=orthogonalEdgeStyle;rounded=0;orthogonalLoop=1;jettySize=auto;html=1;exitX=0.5;exitY=1;exitDx=0;exitDy=0;entryX=0.544;entryY=0;entryDx=0;entryDy=0;entryPerimeter=0;" edge="1" parent="1" source="bK1I2ThMuqI34sz6RyVa-699" target="bK1I2ThMuqI34sz6RyVa-657">
          <mxGeometry relative="1" as="geometry" />
        </mxCell>
        <mxCell id="bK1I2ThMuqI34sz6RyVa-705" style="edgeStyle=orthogonalEdgeStyle;rounded=0;orthogonalLoop=1;jettySize=auto;html=1;exitX=0.5;exitY=1;exitDx=0;exitDy=0;entryX=0.5;entryY=0;entryDx=0;entryDy=0;" edge="1" parent="1" source="bK1I2ThMuqI34sz6RyVa-702" target="bK1I2ThMuqI34sz6RyVa-608">
          <mxGeometry relative="1" as="geometry" />
        </mxCell>
        <mxCell id="bK1I2ThMuqI34sz6RyVa-702" value="Dashboard User" style="whiteSpace=wrap;html=1;strokeWidth=2;" vertex="1" parent="1">
          <mxGeometry x="980" y="570" width="120" height="60" as="geometry" />
        </mxCell>
        <mxCell id="bK1I2ThMuqI34sz6RyVa-708" style="edgeStyle=orthogonalEdgeStyle;rounded=0;orthogonalLoop=1;jettySize=auto;html=1;exitX=1;exitY=0.5;exitDx=0;exitDy=0;entryX=0;entryY=0.5;entryDx=0;entryDy=0;" edge="1" parent="1" source="bK1I2ThMuqI34sz6RyVa-706" target="bK1I2ThMuqI34sz6RyVa-674">
          <mxGeometry relative="1" as="geometry" />
        </mxCell>
        <mxCell id="bK1I2ThMuqI34sz6RyVa-706" value="Page kelola barang" style="whiteSpace=wrap;html=1;strokeWidth=2;" vertex="1" parent="1">
          <mxGeometry x="2145" y="310" width="120" height="60" as="geometry" />
        </mxCell>
        <mxCell id="bK1I2ThMuqI34sz6RyVa-709" value="B" style="ellipse;whiteSpace=wrap;html=1;strokeWidth=2;" vertex="1" parent="1">
          <mxGeometry x="2447.5" y="520" width="40" height="40" as="geometry" />
        </mxCell>
        <mxCell id="bK1I2ThMuqI34sz6RyVa-710" value="B" style="ellipse;whiteSpace=wrap;html=1;strokeWidth=2;" vertex="1" parent="1">
          <mxGeometry x="2447.5" y="320" width="40" height="40" as="geometry" />
        </mxCell>
        <mxCell id="bK1I2ThMuqI34sz6RyVa-711" value="B" style="ellipse;whiteSpace=wrap;html=1;strokeWidth=2;" vertex="1" parent="1">
          <mxGeometry x="2447.5" y="420" width="40" height="40" as="geometry" />
        </mxCell>
        <mxCell id="bK1I2ThMuqI34sz6RyVa-712" value="B" style="ellipse;whiteSpace=wrap;html=1;strokeWidth=2;" vertex="1" parent="1">
          <mxGeometry x="2317.5" y="630" width="40" height="40" as="geometry" />
        </mxCell>
        <mxCell id="bK1I2ThMuqI34sz6RyVa-718" style="edgeStyle=orthogonalEdgeStyle;rounded=0;orthogonalLoop=1;jettySize=auto;html=1;exitX=0;exitY=0.5;exitDx=0;exitDy=0;entryX=1;entryY=0.5;entryDx=0;entryDy=0;" edge="1" parent="1" source="bK1I2ThMuqI34sz6RyVa-717" target="bK1I2ThMuqI34sz6RyVa-657">
          <mxGeometry relative="1" as="geometry" />
        </mxCell>
        <mxCell id="bK1I2ThMuqI34sz6RyVa-717" value="B" style="ellipse;whiteSpace=wrap;html=1;strokeWidth=2;" vertex="1" parent="1">
          <mxGeometry x="1910" y="720" width="40" height="40" as="geometry" />
        </mxCell>
        <mxCell id="bK1I2ThMuqI34sz6RyVa-719" value="ya" style="text;html=1;align=center;verticalAlign=middle;resizable=0;points=[];autosize=1;strokeColor=none;fillColor=none;" vertex="1" parent="1">
          <mxGeometry x="2115" y="610" width="40" height="30" as="geometry" />
        </mxCell>
        <mxCell id="bK1I2ThMuqI34sz6RyVa-720" value="tidak" style="text;html=1;align=center;verticalAlign=middle;resizable=0;points=[];autosize=1;strokeColor=none;fillColor=none;" vertex="1" parent="1">
          <mxGeometry x="2010" y="685" width="50" height="30" as="geometry" />
        </mxCell>
        <mxCell id="bK1I2ThMuqI34sz6RyVa-721" value="tidak" style="text;html=1;align=center;verticalAlign=middle;resizable=0;points=[];autosize=1;strokeColor=none;fillColor=none;" vertex="1" parent="1">
          <mxGeometry x="2027.5" y="560" width="50" height="30" as="geometry" />
        </mxCell>
        <mxCell id="bK1I2ThMuqI34sz6RyVa-722" value="tidak" style="text;html=1;align=center;verticalAlign=middle;resizable=0;points=[];autosize=1;strokeColor=none;fillColor=none;" vertex="1" parent="1">
          <mxGeometry x="2027.5" y="460" width="50" height="30" as="geometry" />
        </mxCell>
        <mxCell id="bK1I2ThMuqI34sz6RyVa-723" value="ya" style="text;html=1;align=center;verticalAlign=middle;resizable=0;points=[];autosize=1;strokeColor=none;fillColor=none;" vertex="1" parent="1">
          <mxGeometry x="2097.5" y="500" width="40" height="30" as="geometry" />
        </mxCell>
        <mxCell id="bK1I2ThMuqI34sz6RyVa-724" value="ya" style="text;html=1;align=center;verticalAlign=middle;resizable=0;points=[];autosize=1;strokeColor=none;fillColor=none;" vertex="1" parent="1">
          <mxGeometry x="2105" y="400" width="40" height="30" as="geometry" />
        </mxCell>
        <mxCell id="bK1I2ThMuqI34sz6RyVa-725" value="tidak" style="text;html=1;align=center;verticalAlign=middle;resizable=0;points=[];autosize=1;strokeColor=none;fillColor=none;" vertex="1" parent="1">
          <mxGeometry x="2027.5" y="357.5" width="50" height="30" as="geometry" />
        </mxCell>
        <mxCell id="bK1I2ThMuqI34sz6RyVa-726" value="ya" style="text;html=1;align=center;verticalAlign=middle;resizable=0;points=[];autosize=1;strokeColor=none;fillColor=none;" vertex="1" parent="1">
          <mxGeometry x="2097.5" y="305" width="40" height="30" as="geometry" />
        </mxCell>
      </root>
    </mxGraphModel>
  </diagram>
</mxfile>
